<svg xmlns="http://www.w3.org/2000/svg" xmlns:xlink="http://www.w3.org/1999/xlink" width="82" height="82" viewBox="0 0 82 82">
  <defs>
    <polygon id="a" points=".119 .094 81.815 .094 81.815 81.672 .119 81.672"/>
    <path id="c" d="M1.67188889,0.0320593094 C0.806116402,0.0595696627 0.126687831,0.783070294 0.154455026,1.64758856 C0.182005291,2.51232345 0.906338624,3.19076775 1.77211111,3.1632574 C2.63810053,3.13574705 3.31774603,2.41246303 3.28997884,1.54772815 C3.26307937,0.699889383 2.56607937,0.0311928416 1.72265079,0.0311928416 C1.70594709,0.0311928416 1.68902646,0.0314094585 1.67188889,0.0320593094 Z"/>
    <path id="e" d="M1.70052381,0.0320593094 C0.834751323,0.0595696627 0.155322751,0.783070294 0.182873016,1.64758856 C0.21042328,2.51232345 0.934756614,3.19076775 1.80074603,3.1632574 C2.66630159,3.13574705 3.34616402,2.41246303 3.31861376,1.54772815 C3.29149735,0.699889383 2.59449735,0.0311928416 1.75128571,0.0311928416 C1.73458201,0.0311928416 1.71744444,0.0314094585 1.70052381,0.0320593094 Z"/>
  </defs>
  <g fill="none" fill-rule="evenodd">
    <g transform="translate(0 .123)">
      <mask id="b" fill="white">
        <use xlink:href="#a"/>
      </mask>
      <path fill="#F58323" d="M81.814936,40.8827029 C81.814936,63.4097831 63.5265497,81.6716756 40.9667878,81.6716756 C18.4070259,81.6716756 0.118639683,63.4097831 0.118639683,40.8827029 C0.118639683,18.3556226 18.4070259,0.0937301566 40.9667878,0.0937301566 C63.5265497,0.0937301566 81.814936,18.3556226 81.814936,40.8827029 Z" mask="url(#b)"/>
      <path fill="#FFFFFF" d="M75.0684185,45.1322293 C75.0684185,47.872867 72.843572,50.0947071 70.0989582,50.0947071 C67.3541275,50.0947071 65.129281,47.872867 65.129281,45.1322293 C65.129281,42.3915916 67.3541275,40.1699681 70.0989582,40.1699681 C72.843572,40.1699681 75.0684185,42.3915916 75.0684185,45.1322293"/>
      <path fill="#784BC9" stroke="#784BC9" stroke-width=".5" d="M75.0683968,45.1214634 C75.0762063,47.5391253 73.3505185,49.6244967 70.9820635,50.0583805 C70.7937672,50.0928226 70.6041693,50.1121015 70.4141376,50.0728938 C70.3405979,50.0577306 70.2876667,50.0063924 70.2698783,49.9385913 C70.2460159,49.8484786 70.2781217,49.7561998 70.3575185,49.713093 C70.5265079,49.6212475 70.7195767,49.6041347 70.9050529,49.5603781 C72.730963,49.13061 73.9535873,48.0507745 74.4362593,46.2160289 C75.067963,43.8154798 73.5685344,41.3414976 71.1369524,40.739519 C70.952127,40.6938129 70.7636138,40.6628366 70.5790053,40.6160474 C70.4306243,40.578356 70.2338677,40.549546 70.2722646,40.3418103 C70.3091429,40.1431726 70.5098042,40.1676503 70.6592698,40.1747986 C70.8486508,40.1836799 71.0402011,40.2062081 71.2243757,40.2501813 C73.4932593,40.7925902 75.0608042,42.7820003 75.0683968,45.1214634"/>
      <path fill="#FFFFFF" d="M16.8042947,45.1322293 C16.8042947,47.872867 14.5794481,50.0947071 11.8348344,50.0947071 C9.0900037,50.0947071 6.86515714,47.872867 6.86515714,45.1322293 C6.86515714,42.3915916 9.0900037,40.1699681 11.8348344,40.1699681 C14.5794481,40.1699681 16.8042947,42.3915916 16.8042947,45.1322293"/>
      <path fill="#784BC9" stroke="#784BC9" stroke-width=".5" d="M6.86526561,45.0336686 C6.84942963,42.7156505 8.59963069,40.6142495 10.8828317,40.2119918 C11.0700434,40.179066 11.2585566,40.1413746 11.4503238,40.1801491 C11.5590063,40.202244 11.6527206,40.2453508 11.6581439,40.3729382 C11.6622656,40.4719321 11.5958847,40.5367006 11.5123661,40.5655106 C11.3986942,40.6047183 11.2789481,40.6268132 11.1611545,40.6528073 C10.6173079,40.7725965 10.0919005,40.9417743 9.60488995,41.2173111 C7.99395873,42.1290518 7.10106984,44.0127529 7.39045608,45.8908219 C7.65771534,47.624624 9.16777354,49.1840494 10.9374984,49.5477493 C11.1409799,49.5895564 11.3505354,49.6071024 11.5396995,49.6993812 C11.6221333,49.7396719 11.6687735,49.8159211 11.6522868,49.9118824 C11.6362339,50.0054609 11.5752762,50.0674134 11.4809111,50.0791107 C11.2728741,50.1046715 11.0678741,50.0849594 10.8622233,50.039903 C8.43541376,49.5076752 6.88240317,47.5644045 6.86526561,45.0336686"/>
      <path fill="#FFFFFF" d="M12.2834698,59.6711044 C11.8042688,59.6711044 11.415745,59.2831435 11.415745,58.8046366 L11.415745,30.2636198 C11.415745,29.785113 11.8042688,29.397152 12.2834698,29.397152 L69.6487608,29.397152 C70.1279619,29.397152 70.5164857,29.785113 70.5164857,30.2636198 L70.5164857,58.8046366 C70.5164857,59.2831435 70.1279619,59.6711044 69.6487608,59.6711044 L12.2834698,59.6711044 Z"/>
      <path fill="#181E37" stroke="#181E37" stroke-width=".5" d="M11.9017143,44.5127265 C11.9017143,49.0696974 11.9012804,53.6264516 11.9019312,58.1834225 C11.9021481,59.083466 11.9785079,59.1597151 12.877254,59.1597151 C21.8306561,59.1601484 30.7840582,59.1601484 39.7374603,59.1597151 C40.6353386,59.1597151 40.709746,59.0845491 40.7101799,58.1816896 C40.7116984,56.0332826 40.7114815,53.8848757 40.7136508,51.7364687 C40.7138677,51.5984837 40.7212434,51.4589824 40.7425026,51.3227303 C40.7628942,51.1929768 40.8420741,51.0896505 40.9832963,51.0959324 C41.1015238,51.1011312 41.1603122,51.200775 41.170291,51.3123327 C41.1904656,51.536098 41.214328,51.7607298 41.214545,51.9849283 C41.2180159,54.0642345 41.2141111,56.143324 41.2180159,58.2226302 C41.2197513,59.0955965 41.2891693,59.1597151 42.1766349,59.1597151 C51.130254,59.1601484 60.0836561,59.1601484 69.0372751,59.1597151 C69.1932487,59.1597151 69.3505238,59.1642641 69.5051958,59.1482344 C69.8462116,59.1127093 69.9670423,59.0033177 70.0015344,58.6647454 C70.031254,58.3723125 70.0386296,58.076847 70.0388466,57.7826812 C70.040582,48.9460091 70.0403651,40.1095536 70.0392804,31.2728815 C70.0392804,31.0478165 70.031037,30.8225349 70.0175873,30.5979031 C69.9820106,30.0048059 69.9041323,29.9313727 69.2886984,29.9088446 C69.0285979,29.8993134 68.7682804,29.8949811 68.5081799,29.8947645 C59.9190053,29.8941146 51.3298307,29.8941146 42.7406561,29.8947645 C42.4805556,29.8947645 42.2202381,29.89953 41.9601376,29.9084113 C41.3269153,29.930073 41.230164,30.0180195 41.2199683,30.6368942 C41.2091217,31.2951931 41.2167143,31.9537086 41.2167143,32.6122242 C41.2164974,36.4067034 41.2173651,40.2011826 41.2149788,43.9956618 C41.2147619,44.2376229 41.1967566,44.4800173 41.1741958,44.7208954 C41.1618307,44.8510822 41.0937143,44.9576577 40.9414286,44.9444441 C40.7952169,44.9316637 40.7388148,44.8233552 40.7320899,44.6907856 C40.7231958,44.5179253 40.7197249,44.3446317 40.7197249,44.1715548 C40.7190741,39.8225362 40.7195079,35.4735175 40.7186402,31.1244989 C40.7186402,30.8994339 40.725582,30.6728526 40.7030212,30.4495205 C40.6637566,30.0580937 40.5355503,29.937438 40.1405185,29.9136101 C39.8463598,29.8958476 39.5508995,29.8949811 39.2560899,29.8949811 C30.6322063,29.8941146 22.0083228,29.8943312 13.3846561,29.8945479 C13.2111111,29.8945479 13.0375661,29.8936814 12.8640212,29.8986636 C11.9592011,29.9248742 11.9019312,29.9833608 11.9019312,30.8940185 C11.9014974,35.43366 11.9017143,39.9730849 11.9017143,44.5127265 M40.974836,29.3971953 C50.4306508,29.3971953 59.8864656,29.3969787 69.3422804,29.3978452 C69.5852434,29.3978452 69.8284233,29.3991449 70.0705185,29.4149579 C70.3343069,29.4320707 70.4794339,29.5876016 70.5022116,29.8477586 C70.5158783,30.0026397 70.5158783,30.1590372 70.5158783,30.3150014 C70.5165291,39.7915599 70.5165291,49.2681185 70.5160952,58.7448937 C70.5160952,59.6035633 70.466418,59.6520855 69.6049841,59.668765 C69.4316561,59.6720142 69.2581111,59.6709312 69.0845661,59.6709312 C50.2770635,59.6711478 31.4693439,59.6711478 12.6618413,59.6707145 C12.4364497,59.6707145 12.2101905,59.6741804 11.9854497,59.6596671 C11.5498519,59.6317235 11.4522328,59.5292637 11.4214286,59.0849823 C11.4118836,58.9469973 11.4170899,58.8079292 11.4170899,58.6692944 C11.4170899,49.2618366 11.416873,39.8543788 11.4170899,30.4469211 C11.4170899,29.4082428 11.4268519,29.3974119 12.4512011,29.3974119 C21.9590794,29.3969787 31.4669577,29.3971953 40.974836,29.3971953"/>
      <path fill="#C8EDF2" d="M62.0998365 47.7079565C62.0885561 49.0908392 60.9952228 50.1841049 59.6248683 50.1828052 58.2263127 50.1817222 57.1440429 49.0739431 57.1551063 47.655102 57.165736 46.2726526 58.2558153 45.2101464 59.6537201 45.2196776 61.0392598 45.2289921 62.1111169 46.3194418 62.0998365 47.7079565M22.3026333 45.2195476C23.6888238 45.2247464 24.7845434 46.3223445 24.7754323 47.6959126 24.7663212 49.0543176 23.6400143 50.181159 22.2902683 50.1824587 20.9227339 50.183975 19.8092259 49.0982908 19.8161677 47.7708621 19.8241942 46.2651576 20.8485434 45.2139156 22.3026333 45.2195476"/>
      <path fill="#181E37" stroke="#181E37" stroke-width=".5" d="M40.9173275,53.3620314 C37.5984968,53.3542332 34.9957561,51.9165465 32.9724386,49.3388047 C32.5758884,48.833654 32.2348725,48.2912451 31.9355074,47.7230588 C31.8793222,47.6162667 31.8253063,47.5062253 31.7873434,47.3920681 C31.7407032,47.2514837 31.7422217,47.1061338 31.9062217,47.0413653 C32.0480947,46.9852615 32.1348672,47.090754 32.1995127,47.1942969 C32.3368302,47.4145963 32.4646026,47.6407444 32.596063,47.8645097 C33.9095815,50.1021629 35.7226926,51.7724962 38.2512429,52.4801838 C42.0969995,53.5563368 45.3576926,52.4849494 48.0378778,49.569935 C48.5789042,48.9813867 49.0223116,48.3181056 49.4310101,47.6320797 C49.5281952,47.4687505 49.632973,47.3091038 49.7442587,47.1550892 C49.8045656,47.0716917 49.8867825,46.9900271 50.0054439,47.0439647 C50.143846,47.1067836 50.1475339,47.2322048 50.1095709,47.3543768 C50.0739942,47.4691838 50.0288725,47.5835575 49.970518,47.6881835 C48.2817085,50.7223372 45.8058725,52.6848868 42.3273804,53.282533 C41.8627138,53.3624647 41.3932746,53.3291056 40.9173275,53.3620314" transform="matrix(1 0 0 -1 0 100.388)"/>
      <path fill="#181E37" stroke="#181E37" stroke-width=".5" d="M41.218081,26.030058 C41.218081,27.0000688 41.2182979,27.9700795 41.2176471,28.9400902 C41.2174302,29.0787251 41.2297952,29.2203926 41.2046312,29.3546951 C41.1751286,29.5108759 41.2033296,29.7441724 40.9488693,29.729659 C40.7423508,29.7179617 40.7412661,29.5260391 40.7299857,29.3720244 C40.7174037,29.1995973 40.7161021,29.0260872 40.7158852,28.8530102 C40.7150175,26.9476475 40.703737,25.0420681 40.7226101,23.1367054 C40.7280333,22.5875814 40.5837741,22.2002703 40.0872185,21.8837929 C39.2260016,21.3351022 39.2040915,20.0180711 40.054028,19.4509679 C40.5729275,19.1045974 40.7761921,18.6975741 40.7184884,18.1075095 C40.6985307,17.9017234 40.716536,17.6920382 40.7150175,17.4843025 C40.7104619,16.8299027 40.6555783,16.7434726 40.0601021,16.5320544 C39.8138852,16.4447578 39.5765624,16.3414315 39.3524725,16.209945 C38.366737,15.6317943 37.7586788,14.385597 37.9263667,13.2960137 C38.1281127,11.9852645 38.9465942,11.0306336 40.1230122,10.7336517 C41.7417529,10.3251122 43.3301233,11.1718678 43.8195201,12.7042162 C44.3143402,14.2541105 43.5364249,15.8527436 41.9851497,16.4722681 C41.8725624,16.5173244 41.7580228,16.5569654 41.6443508,16.5987724 C41.3677635,16.700799 41.2300122,16.9057187 41.2254566,17.1936026 C41.2185148,17.643516 41.2206841,18.0934294 41.2217688,18.5435594 C41.2224196,18.8208292 41.3497582,19.0428615 41.5445624,19.2287189 C41.6191868,19.3002025 41.7072608,19.3573894 41.7894778,19.4210747 C42.6899593,20.1192312 42.684536,21.2629687 41.7521656,21.9134694 C41.3679804,22.1814246 41.1966048,22.5126319 41.218081,22.9640617 C41.2189487,22.981391 41.218081,22.9987204 41.218081,23.0160497 C41.218081,24.0207192 41.218081,25.0253886 41.218081,26.030058"/>
    </g>
    <g transform="translate(54.233 39.33)">
      <mask id="d" fill="white">
        <use xlink:href="#c"/>
      </mask>
      <polygon fill="#181E37" points="-1.806 5.121 5.25 5.121 5.25 -1.926 -1.806 -1.926" mask="url(#d)"/>
    </g>
    <g transform="translate(24.296 39.33)">
      <mask id="f" fill="white">
        <use xlink:href="#e"/>
      </mask>
      <polygon fill="#181E37" points="-1.778 5.121 5.279 5.121 5.279 -1.926 -1.778 -1.926" mask="url(#f)"/>
    </g>
  </g>
</svg>
