<svg xmlns="http://www.w3.org/2000/svg" width="44" height="44" viewBox="0 0 44 44">
  <g fill="none" fill-rule="evenodd">
    <path stroke="#784BC9" d="M21.9833711,43.5 C33.8482247,43.5 43.4667423,33.8742067 43.4667423,22 C43.4667423,10.1257933 33.8482247,0.5 21.9833711,0.5 C10.1185175,0.5 0.5,10.1257933 0.5,22 C0.5,33.8742067 10.1185175,43.5 21.9833711,43.5 Z"/>
    <path fill="#784BC9" d="M25.3392963,13.872768 C25.0630682,13.8318453 24.1116162,13.75 23.0067042,13.75 C20.6945735,13.75 19.1088201,15.161832 19.1088201,17.7501908 L19.1088201,19.9804762 L16.5,19.9804762 L16.5,23.0087536 L19.1088201,23.0087536 L19.1088201,30.7738298 L22.2394042,30.7738298 L22.2394042,23.0087536 L24.8379936,23.0087536 L25.2369896,19.9804762 L22.2394042,19.9804762 L22.2394042,18.0468801 C22.2394042,17.1772734 22.4747095,16.5736641 23.7330815,16.5736641 L25.3392963,16.5736641 L25.3392963,13.872768 Z"/>
  </g>
</svg>
