<svg xmlns="http://www.w3.org/2000/svg" width="57" height="57" viewBox="0 0 57 57">
  <g fill="none" fill-rule="evenodd" stroke="#FFFFFF" stroke-width="2" stroke-linecap="round" opacity=".75" stroke-linejoin="round">
    <path d="M23.75 20.1875C23.75 22.154 22.154 23.75 20.1875 23.75 18.218625 23.75 16.625 22.154 16.625 20.1875 16.625 18.221 18.218625 16.625 20.1875 16.625 22.154 16.625 23.75 18.221 23.75 20.1875L23.75 20.1875zM33.25 20.1875C33.25 22.154 34.843625 23.75 36.8125 23.75 38.779 23.75 40.375 22.154 40.375 20.1875 40.375 18.221 38.779 16.625 36.8125 16.625 34.843625 16.625 33.25 18.221 33.25 20.1875L33.25 20.1875z"/>
    <path d="M55.8125 28.5C55.8125 43.586 43.583625 55.8125 28.5 55.8125 13.414 55.8125 1.1875 43.586 1.1875 28.5 1.1875 13.414 13.414 1.1875 28.5 1.1875 43.583625 1.1875 55.8125 13.414 55.8125 28.5L55.8125 28.5zM19.6669 45.5703125L37.329775 33.9921875M19.6669 33.9921875L37.329775 45.5703125"/>
  </g>
</svg>
