<svg xmlns="http://www.w3.org/2000/svg" width="45" height="45" viewBox="0 0 45 45">
  <g fill="none" fill-rule="evenodd" stroke="#1E2E6E" stroke-linecap="round" stroke-linejoin="round" stroke-width="1.579" opacity=".75">
    <path d="M18.75 15.9375C18.75 17.49 17.49 18.75 15.9375 18.75 14.383125 18.75 13.125 17.49 13.125 15.9375 13.125 14.385 14.383125 13.125 15.9375 13.125 17.49 13.125 18.75 14.385 18.75 15.9375L18.75 15.9375zM26.25 15.9375C26.25 17.49 27.508125 18.75 29.0625 18.75 30.615 18.75 31.875 17.49 31.875 15.9375 31.875 14.385 30.615 13.125 29.0625 13.125 27.508125 13.125 26.25 14.385 26.25 15.9375L26.25 15.9375z"/>
    <path d="M44.0625 22.5C44.0625 34.41 34.408125 44.0625 22.5 44.0625 10.59 44.0625.9375 34.41.9375 22.5.9375 10.59 10.59.9375 22.5.9375 34.408125.9375 44.0625 10.59 44.0625 22.5L44.0625 22.5zM15.5265 35.9765625L29.470875 26.8359375M15.5265 26.8359375L29.470875 35.9765625"/>
  </g>
</svg>
