<svg xmlns="http://www.w3.org/2000/svg" width="23" height="24" viewBox="0 0 23 24">
  <g fill="none" fill-rule="evenodd" stroke="#784BC9" stroke-linecap="round" stroke-linejoin="round">
    <path d="M.522727273 8L22.4772727 8M.522727273 16L22.4772727 16M15.3333333.545454545L15.3333333 23.4545455M7.66666667.545454545L7.66666667 23.4545455"/>
    <polygon points=".523 23.455 22.477 23.455 22.477 .545 .523 .545"/>
    <path d="M20.3863636 19.6363636C20.3863636 20.5407273 19.6838182 21.2727273 18.8181818 21.2727273 17.9525455 21.2727273 17.25 20.5407273 17.25 19.6363636 17.25 18.7330909 17.9525455 18 18.8181818 18 19.6838182 18 20.3863636 18.7330909 20.3863636 19.6363636L20.3863636 19.6363636zM5.75 4.36363636C5.75 5.268 5.04745455 6 4.18181818 6 3.31618182 6 2.61363636 5.268 2.61363636 4.36363636 2.61363636 3.46036364 3.31618182 2.72727273 4.18181818 2.72727273 5.04745455 2.72727273 5.75 3.46036364 5.75 4.36363636L5.75 4.36363636zM9.96454091 10.3976727L13.0360864 13.6027636M13.0355636 10.3976727L9.96401818 13.6027636"/>
  </g>
</svg>
