<svg xmlns="http://www.w3.org/2000/svg" width="24" height="24" viewBox="0 0 24 24">
  <g fill="none" fill-rule="evenodd" stroke="#784BC9" stroke-linecap="round" stroke-linejoin="round">
    <path d="M23.5,19.4046858 C23.5,21.3798786 21.934,22.9792332 20,22.9792332 L4,22.9792332 C2.067,22.9792332 0.5,21.3798786 0.5,19.4046858 C0.5,17.4305144 2.067,15.8301384 4,15.8301384 L20,15.8301384 C21.934,15.8301384 23.5,17.4305144 23.5,19.4046858 L23.5,19.4046858 Z"/>
    <path d="M7.8467 15.8301384L10.7907 10.5530852C12.5827 7.34314164 12.5947 3.40909691 10.8217.189961661L1.3547 17.043442M9.79 6.03250831L7.046 10.9490429M6.5 19.4046858C6.5 20.2523642 5.828 20.9366347 5 20.9366347 4.172 20.9366347 3.5 20.2523642 3.5 19.4046858 3.5 18.5580288 4.172 17.872737 5 17.872737 5.828 17.872737 6.5 18.5580288 6.5 19.4046858L6.5 19.4046858zM20.5 19.4046858C20.5 20.2523642 19.828 20.9366347 19 20.9366347 18.172 20.9366347 17.5 20.2523642 17.5 19.4046858 17.5 18.5580288 18.172 17.872737 19 17.872737 19.828 17.872737 20.5 18.5580288 20.5 19.4046858L20.5 19.4046858zM22.5 16.9372268L22.5 6.63844515C22.5 5.51093078 21.604 4.59584665 20.5 4.59584665 19.396 4.59584665 18.5 5.51093078 18.5 6.63844515L18.5 6.69053142C19.641 6.92747284 20.5 7.95592119 20.5 9.19169329 20.5 10.4264441 19.641 11.456935 18.5 11.6938765L18.5 15.8301384"/>
  </g>
</svg>
