<svg xmlns="http://www.w3.org/2000/svg" width="45" height="47" viewBox="0 0 45 47">
  <g fill="none" fill-rule="evenodd" stroke="#1E2E6E" stroke-linecap="round" stroke-linejoin="round" stroke-width="1.579" opacity=".75" transform="translate(1 1)">
    <polygon points="23.438 44.819 42.813 44.819 42.813 29.293 23.438 29.293"/>
    <path d="M27.3126482 29.2927632L27.3126482 27.3519737C27.3126482 24.1360855 29.9167146 21.5296053 33.1252964 21.5296053 36.3338783 21.5296053 38.9379447 24.1360855 38.9379447 27.3519737L38.9379447 29.2927632M40.8754941 11.8256579C40.8754941 12.8950329 40.0094095 13.7664474 38.9379447 13.7664474L2.12450593 13.7664474C1.05304111 13.7664474.186956522 12.8950329.186956522 11.8256579L.186956522 2.12171053C.186956522 1.05039474 1.05304111.180921053 2.12450593.180921053L38.9379447.180921053C40.0094095.180921053 40.8754941 1.05039474 40.8754941 2.12171053L40.8754941 11.8256579 40.8754941 11.8256579z"/>
    <path d="M8.90592885 6.97368421C8.90592885 8.04305921 8.03984427 8.91447368 6.96837945 8.91447368 5.89691462 8.91447368 5.03083004 8.04305921 5.03083004 6.97368421 5.03083004 5.90236842 5.89691462 5.03289474 6.96837945 5.03289474 8.03984427 5.03289474 8.90592885 5.90236842 8.90592885 6.97368421L8.90592885 6.97368421zM16.6561265 27.3519737L2.12450593 27.3519737C1.05304111 27.3519737.186956522 26.4805592.186956522 25.4111842L.186956522 15.7072368C.186956522 14.6359211 1.05304111 13.7664474 2.12450593 13.7664474L38.9379447 13.7664474C40.0094095 13.7664474 40.8754941 14.6359211 40.8754941 15.7072368L40.8754941 18.6184211"/>
    <path d="M8.90592885 20.5592105C8.90592885 21.6285855 8.03984427 22.5 6.96837945 22.5 5.89691462 22.5 5.03083004 21.6285855 5.03083004 20.5592105 5.03083004 19.4878947 5.89691462 18.6184211 6.96837945 18.6184211 8.03984427 18.6184211 8.90592885 19.4878947 8.90592885 20.5592105L8.90592885 20.5592105zM18.5936759 40.9375L2.12450593 40.9375C1.05304111 40.9375.186956522 40.0660855.186956522 38.9967105L.186956522 29.2927632C.186956522 28.2214474 1.05304111 27.3519737 2.12450593 27.3519737L16.6561265 27.3519737"/>
    <path d="M8.90592885 34.1447368C8.90592885 35.2141118 8.03984427 36.0855263 6.96837945 36.0855263 5.89691462 36.0855263 5.03083004 35.2141118 5.03083004 34.1447368 5.03083004 33.0734211 5.89691462 32.2039474 6.96837945 32.2039474 8.03984427 32.2039474 8.90592885 33.0734211 8.90592885 34.1447368L8.90592885 34.1447368zM33.1490909 39.9671053L33.1490909 36.0855263M34.0940711 35.1151316C34.0940711 35.6507895 33.6600601 36.0855263 33.1252964 36.0855263 32.5905328 36.0855263 32.1565217 35.6507895 32.1565217 35.1151316 32.1565217 34.5794737 32.5905328 34.1447368 33.1252964 34.1447368 33.6600601 34.1447368 34.0940711 34.5794737 34.0940711 35.1151316L34.0940711 35.1151316z"/>
  </g>
</svg>
