<svg xmlns="http://www.w3.org/2000/svg" width="24" height="29" viewBox="0 0 24 29">
  <g fill="#FFFFFF">
    <path d="M19.7898148 15.3861111C19.762963 11.7342593 22.7703704 9.96203704 22.9046296 9.88148148 21.212963 7.41111111 18.5546296 7.06203704 17.6416667 7.03518519 15.412963 6.79351852 13.2648148 8.37777778 12.137037 8.37777778 10.9824074 8.37777778 9.23703704 7.06203704 7.35740741 7.11574074 4.94074074 7.14259259 2.68518519 8.56574074 1.45 10.7138889-1.12777778 15.1444444.778703704 21.6425926 3.22222222 25.2407407 4.45740741 26.9861111 5.88055556 28.9462963 7.76018519 28.8925926 9.58611111 28.812037 10.2842593 27.7111111 12.4861111 27.7111111 14.687963 27.7111111 15.3324074 28.8925926 17.2388889 28.8388889 19.1990741 28.812037 20.4611111 27.0666667 21.6425926 25.2944444 23.0657407 23.2805556 23.6296296 21.2935185 23.6564815 21.212963 23.6027778 21.1861111 19.8435185 19.762963 19.7898148 15.3861111zM16.1916667 4.67222222C17.1851852 3.43703704 17.8564815 1.74537037 17.6685185.0537037037 16.2453704.107407407 14.4462963 1.04722222 13.4259259 2.25555556 12.512963 3.32962963 11.7074074 5.075 11.9222222 6.71296296 13.5064815 6.82037037 15.1444444 5.90740741 16.1916667 4.67222222z"/>
  </g>
</svg>
