<svg xmlns="http://www.w3.org/2000/svg" width="59" height="59" viewBox="0 0 59 59">
  <g fill="none" fill-rule="evenodd" stroke="#25B8CC" stroke-width="2" stroke-linejoin="round">
    <path d="M28.2708333 30.7291667L6.14583333 30.7291667C3.43183333 30.7291667 1.22916667 28.5265 1.22916667 25.8125L1.22916667 6.14583333C1.22916667 3.43183333 3.43183333 1.22916667 6.14583333 1.22916667L38.1041667 1.22916667C40.8181667 1.22916667 43.0208333 3.43183333 43.0208333 6.14583333L43.0208333 15.9791667M1.22916667 8.60416667L43.0208333 8.60416667M20.8958333 13.5208333L8.60416667 13.5208333M38.1041667 13.5208333L33.1875 13.5208333M15.9791667 18.4375L8.60416667 18.4375" stroke-linecap="round"/>
    <polygon points="33.188 57.771 57.771 57.771 57.771 38.104 33.188 38.104" stroke-linecap="round"/>
    <path d="M45.4791667 52.8541667L45.4791667 47.9375M38.1041667 38.1041667L38.1041667 33.1875C38.1041667 29.1140417 41.4081667 25.8125 45.4791667 25.8125 49.552625 25.8125 52.8541667 29.1140417 52.8541667 33.1875L52.8541667 38.1041667" stroke-linecap="round"/>
    <path d="M46.7083333,46.7083333 C46.7083333,47.3868333 46.1576667,47.9375 45.4791667,47.9375 C44.8006667,47.9375 44.25,47.3868333 44.25,46.7083333 C44.25,46.0298333 44.8006667,45.4791667 45.4791667,45.4791667 C46.1576667,45.4791667 46.7083333,46.0298333 46.7083333,46.7083333 L46.7083333,46.7083333 Z"/>
  </g>
</svg>
