<svg xmlns="http://www.w3.org/2000/svg" width="59" height="59" viewBox="0 0 59 59">
  <g fill="none" fill-rule="evenodd" stroke="#FFFFFF" stroke-width="2" transform="translate(1 1)" opacity=".75" stroke-linejoin="round">
    <path d="M14.9803958,18.6283167 C14.9803958,16.6124833 16.6520625,14.98015 18.6678958,14.98015 C20.7033958,14.98015 22.3553958,16.63215 22.3553958,18.66765 L22.3553958,33.41765 L33.2605625,37.10515 C35.6893958,37.8869 36.2400625,40.7582333 35.6672708,43.2509833 L33.1597708,56.7718167 L13.5299792,56.7718167 L3.65977083,42.0218167 C2.54122917,40.3157333 2.51172917,37.10515 4.9700625,37.10515 C7.42839583,37.10515 10.0637292,38.1351917 14.9803958,45.7093167 L14.9803958,18.6283167 L14.9803958,18.6283167 Z"/>
    <polyline points="14.98 29.729 .23 29.729 .23 7.604 29.73 7.604" stroke-linecap="round"/>
    <polygon points="34.646 27.271 56.771 27.271 56.771 10.063 34.646 10.063" stroke-linecap="round"/>
    <path d="M45.7 22.3541667L45.7 17.4375M38.3333333 10.0625L38.3333333 7.60416667C38.3333333 3.53070833 41.6373333.229166667 45.7083333.229166667 49.7793333.229166667 53.0833333 3.53070833 53.0833333 7.60416667L53.0833333 10.0625" stroke-linecap="round"/>
    <path fill="#FFFFFF" d="M46.9375,16.2083333 C46.9375,16.8868333 46.3868333,17.4375 45.7083333,17.4375 C45.0298333,17.4375 44.4791667,16.8868333 44.4791667,16.2083333 C44.4791667,15.5298333 45.0298333,14.9791667 45.7083333,14.9791667 C46.3868333,14.9791667 46.9375,15.5298333 46.9375,16.2083333 L46.9375,16.2083333 Z"/>
    <path d="M22.3541667,29 L29.7291667,29" stroke-linecap="round"/>
  </g>
</svg>
