<svg xmlns="http://www.w3.org/2000/svg" width="24" height="28" viewBox="0 0 24 28">
  <g fill="#FFFFFF">
    <path d="M22.1360647,0.0224960007 C21.1912326,0.0224960007 20.4263686,0.787360023 20.4263686,1.75468805 L20.4263686,8.45849625 C20.4263686,9.40332828 21.1912326,10.1906883 22.1360647,10.1906883 C23.0808967,10.1906883 23.8457607,9.42582428 23.8457607,8.45849625 L23.8457607,1.73219205 C23.8232647,0.809856024 23.0808967,0.0224960007 22.1360647,0.0224960007 Z M1.77718405,0.0224960007 C0.832352025,0.0224960007 0.067488002,0.787360023 0.067488002,1.75468805 L0.067488002,8.45849625 C0.067488002,9.40332828 0.832352025,10.1906883 1.77718405,10.1906883 C2.72201608,10.1906883 3.4868801,9.42582428 3.4868801,8.45849625 L3.4868801,1.73219205 C3.4418881,0.809856024 2.69952008,0.0224960007 1.77718405,0.0224960007 Z" transform="translate(0 8.773)"/>
    <path d="M0.202464006,0.0899840027 L0.202464006,12.3503044 C0.202464006,13.0926724 0.787360023,13.6775684 1.52972805,13.6775684 L3.03696009,13.6775684 L3.03696009,17.4119045 C3.03696009,18.3567365 3.80182411,19.1440966 4.74665614,19.1440966 C5.69148817,19.1440966 6.45635219,18.3792325 6.45635219,17.4119045 L6.45635219,13.6550724 L9.08838427,13.6550724 L9.08838427,17.3894085 C9.08838427,18.3342405 9.85324829,19.1216006 10.7980803,19.1216006 C11.7429124,19.1216006 12.5077764,18.3567365 12.5077764,17.3894085 L12.5077764,13.6550724 L13.9475204,13.6550724 C14.6898884,13.6550724 15.2747845,13.0701764 15.2747845,12.3278084 L15.2747845,0.0899840027 L0.202464006,0.0899840027 Z" transform="translate(4.274 8.773)"/>
    <path d="M11.0230403,2.49705607 L12.4177924,0.494912015 C12.5077764,0.382432011 12.4852804,0.224960007 12.3728004,0.134976004 C12.2603204,0.067488002 12.1028484,0.0899840027 12.0353604,0.224960007 L10.5956163,2.31708807 C9.65078429,1.93465606 8.59347226,1.73219205 7.49116822,1.73219205 C6.36636819,1.73219205 5.33155216,1.93465606 4.38672013,2.31708807 L2.94697609,0.224960007 C2.85699209,0.112480003 2.69952008,0.067488002 2.60953608,0.134976004 C2.49705607,0.202464006 2.47456007,0.359936011 2.56454408,0.494912015 L3.95929612,2.49705607 C1.73219205,3.53187211 0.202464006,5.48902416 0,7.76112023 L15.0273284,7.76112023 C14.7798724,5.48902416 13.2276484,3.53187211 11.0230403,2.49705607 Z M4.29673613,5.69148817 C3.82432011,5.69148817 3.4643841,5.30905616 3.4643841,4.85913615 C3.4643841,4.38672013 3.84681611,4.02678412 4.29673613,4.02678412 C4.76915214,4.02678412 5.12908815,4.40921613 5.12908815,4.85913615 C5.12908815,5.30905616 4.74665614,5.69148817 4.29673613,5.69148817 Z M10.7305923,5.69148817 C10.2581763,5.69148817 9.8982403,5.30905616 9.8982403,4.85913615 C9.8982403,4.38672013 10.2806723,4.02678412 10.7305923,4.02678412 C11.1805123,4.02678412 11.5629443,4.40921613 11.5629443,4.85913615 C11.5629443,5.30905616 11.1805123,5.69148817 10.7305923,5.69148817 Z" transform="translate(4.5)"/>
  </g>
</svg>
