<svg xmlns="http://www.w3.org/2000/svg" width="18" height="25" viewBox="0 0 18 25">
  <g fill="none" fill-rule="evenodd" stroke="#784BC9" stroke-linecap="round" stroke-linejoin="round">
    <path d="M9.5 15.3194888C9.5 15.6003461 9.276 15.8301384 9 15.8301384 8.724 15.8301384 8.5 15.6003461 8.5 15.3194888 8.5 15.0365889 8.724 14.8088392 9 14.8088392 9.276 14.8088392 9.5 15.0365889 9.5 15.3194888L9.5 15.3194888zM9 15.8301384L9 18.8940362"/>
    <polygon points=".5 24.001 17.5 24.001 17.5 9.702 .5 9.702"/>
    <path d="M3.5,6.12779553 C3.5,3.02508839 5.962,0.510649627 9,0.510649627 C12.038,0.510649627 14.5,3.02508839 14.5,6.12779553 L14.5,9.70234292 L3.5,9.70234292 L3.5,6.12779553 L3.5,6.12779553 Z"/>
  </g>
</svg>
