<svg xmlns="http://www.w3.org/2000/svg" width="24" height="24" viewBox="0 0 24 24">
  <g fill="none" fill-rule="evenodd" stroke="#647A92" stroke-opacity=".6" stroke-linecap="round" stroke-linejoin="round">
    <path d="M23.5,12 C23.5,18.351 18.351,23.5 12,23.5 C5.648,23.5 0.5,18.351 0.5,12 C0.5,5.648 5.648,0.5 12,0.5 C18.351,0.5 23.5,5.648 23.5,12 L23.5,12 Z"/>
    <path d="M19.5 13C19.5 17.143 16.142 20.5 12 20.5 7.857 20.5 4.5 17.143 4.5 13M18.5 10C18.5 8.896 14.5 8.896 14.5 10M9 9.5C9 10.328 8.328 11 7.5 11 6.671 11 6 10.328 6 9.5 6 8.672 6.671 8 7.5 8 8.328 8 9 8.672 9 9.5L9 9.5z"/>
  </g>
</svg>
