<svg xmlns="http://www.w3.org/2000/svg" width="59" height="56" viewBox="0 0 59 56">
  <g fill="none" fill-rule="evenodd" stroke="#FFFFFF" stroke-width="2" transform="translate(1 1)" stroke-linecap="round" opacity=".75" stroke-linejoin="round">
    <path d="M28.5400174,48.6363636 C28.5400174,43.5454545 31.0641913,41 36.1946261,41 L51.5859304,41 L51.5859304,0.272727273 L36.1946261,0.272727273 C31.0641913,0.272727273 28.4989739,2.81818182 28.4989739,7.90909091 C28.4989739,2.81818182 25.9337565,0.272727273 20.8033217,0.272727273 L5.41201739,0.272727273 L5.41201739,41 L20.8033217,41 C25.9337565,41 28.5400174,43.5454545 28.5400174,48.6363636 L28.5400174,48.6363636 Z"/>
    <path d="M51.5869565 5.36363636L56.7173913 5.36363636 56.7173913 46.0909091 41.326087 46.0909091C36.1956522 46.0909091 32.3478261 48.6363636 32.3478261 53.7272727L24.6521739 53.7272727C24.6521739 48.6363636 20.8043478 46.0909091 15.673913 46.0909091L.282608696 46.0909091.282608696 5.36363636 5.41304348 5.36363636M28.5 7.90909091L28.5 47.3636364"/>
  </g>
</svg>
