<svg xmlns="http://www.w3.org/2000/svg" width="59" height="59" viewBox="0 0 59 59">
  <g fill="none" fill-rule="evenodd" stroke="#25B8CC" stroke-width="2" stroke-linecap="round" stroke-linejoin="round">
    <path d="M44.21165 14.78835L57.7718167 1.22818333M1.22916667 57.7708333L14.7106667 44.2893333"/>
    <polyline points="13.521 57.771 1.229 57.771 1.229 45.479"/>
    <polyline points="57.771 13.521 57.771 1.229 45.479 1.229"/>
    <path d="M44.21165 44.21165L57.7718167 57.7718167M1.22916667 1.22916667L14.7106667 14.7106667"/>
    <polyline points="1.229 13.521 1.229 1.229 13.521 1.229"/>
    <polyline points="45.479 57.771 57.771 57.771 57.771 45.479"/>
    <path d="M36.7980542 15.9791667C36.7980542 20.052625 33.4940542 23.3541667 29.4230542 23.3541667 25.3495958 23.3541667 22.0480542 20.052625 22.0480542 15.9791667 22.0480542 11.9081667 25.3495958 8.60416667 29.4230542 8.60416667 33.4940542 8.60416667 36.7980542 11.9081667 36.7980542 15.9791667L36.7980542 15.9791667zM40.4855542 28.2708333L18.3605542 28.2708333C18.3605542 33.394 20.8188875 40.5625 25.7355542 42.2833333L25.7355542 52.8541667 33.1105542 52.8541667 33.1105542 42.2833333C38.0272208 40.5625 40.4855542 33.394 40.4855542 28.2708333L40.4855542 28.2708333z"/>
  </g>
</svg>
