<svg xmlns="http://www.w3.org/2000/svg" width="59" height="59" viewBox="0 0 59 59">
  <g fill="none" fill-rule="evenodd" stroke="#25B8CC" stroke-width="2" stroke-linejoin="round">
    <path d="M57.7708333,45.4791667 C57.7708333,52.2690833 52.2690833,57.7708333 45.4791667,57.7708333 C38.68925,57.7708333 33.1875,52.2690833 33.1875,45.4791667 C33.1875,38.68925 38.68925,33.1875 45.4791667,33.1875 C52.2690833,33.1875 57.7708333,38.68925 57.7708333,45.4791667 L57.7708333,45.4791667 Z"/>
    <path d="M45.4791667 39.3333333L45.4791667 51.625M51.625 45.4791667L39.3333333 45.4791667M30.7291667 35.6458333L30.7291667 28.7526667M18.4375 28.752175L18.4375 35.6453417 6.12370833 40.0433C3.18845833 41.0930083 1.22916667 43.8733833 1.22916667 46.9880917L1.22916667 52.853675 28.2708333 52.853675" stroke-linecap="round"/>
    <path d="M36.875,15.9791667 C36.875,24.123625 31.3707917,30.7291667 24.5833333,30.7291667 C17.7934167,30.7291667 12.2916667,24.123625 12.2916667,15.9791667 C12.2916667,7.83470833 17.7934167,1.22916667 24.5833333,1.22916667 C31.3707917,1.22916667 36.875,7.83470833 36.875,15.9791667 L36.875,15.9791667 Z"/>
    <path d="M36.7597042,14.6347042 C36.3467042,14.6863292 36.0615375,14.6691208 35.6460792,14.7502458 C31.4595375,15.5565792 28.7701208,14.0397875 26.4666625,10.0056625 C25.0826208,12.6557458 20.7584125,14.7502458 17.2085792,14.7502458 C15.4607042,14.7502458 13.9562042,14.3913292 12.4492458,13.6046625"/>
  </g>
</svg>
