<svg xmlns="http://www.w3.org/2000/svg" width="57" height="59" viewBox="0 0 57 59">
  <g fill="none" fill-rule="evenodd" stroke="#FFFFFF" stroke-width="2" transform="translate(1 1)" stroke-linecap="round" opacity=".75" stroke-linejoin="round">
    <polygon points="29.978 56.771 54.761 56.771 54.761 37.104 29.978 37.104"/>
    <path d="M34.9347826 37.1041667L34.9347826 34.6458333C34.9347826 30.572375 38.2655652 27.2708333 42.3695652 27.2708333 46.4735652 27.2708333 49.8043478 30.572375 49.8043478 34.6458333L49.8043478 37.1041667M52.2826087 14.9791667C52.2826087 16.3337083 51.1748261 17.4375 49.8043478 17.4375L2.7173913 17.4375C1.34691304 17.4375.239130435 16.3337083.239130435 14.9791667L.239130435 2.6875C.239130435 1.3305 1.34691304.229166667 2.7173913.229166667L49.8043478.229166667C51.1748261.229166667 52.2826087 1.3305 52.2826087 2.6875L52.2826087 14.9791667 52.2826087 14.9791667z"/>
    <path d="M11.3913043 8.83333333C11.3913043 10.187875 10.2835217 11.2916667 8.91304348 11.2916667 7.54256522 11.2916667 6.43478261 10.187875 6.43478261 8.83333333 6.43478261 7.47633333 7.54256522 6.375 8.91304348 6.375 10.2835217 6.375 11.3913043 7.47633333 11.3913043 8.83333333L11.3913043 8.83333333zM21.3043478 34.6458333L2.7173913 34.6458333C1.34691304 34.6458333.239130435 33.5420417.239130435 32.1875L.239130435 19.8958333C.239130435 18.5388333 1.34691304 17.4375 2.7173913 17.4375L49.8043478 17.4375C51.1748261 17.4375 52.2826087 18.5388333 52.2826087 19.8958333L52.2826087 23.5833333"/>
    <path d="M11.3913043 26.0416667C11.3913043 27.3962083 10.2835217 28.5 8.91304348 28.5 7.54256522 28.5 6.43478261 27.3962083 6.43478261 26.0416667 6.43478261 24.6846667 7.54256522 23.5833333 8.91304348 23.5833333 10.2835217 23.5833333 11.3913043 24.6846667 11.3913043 26.0416667L11.3913043 26.0416667zM23.7826087 51.8541667L2.7173913 51.8541667C1.34691304 51.8541667.239130435 50.750375.239130435 49.3958333L.239130435 37.1041667C.239130435 35.7471667 1.34691304 34.6458333 2.7173913 34.6458333L21.3043478 34.6458333"/>
    <path d="M11.3913043 43.25C11.3913043 44.6045417 10.2835217 45.7083333 8.91304348 45.7083333 7.54256522 45.7083333 6.43478261 44.6045417 6.43478261 43.25 6.43478261 41.893 7.54256522 40.7916667 8.91304348 40.7916667 10.2835217 40.7916667 11.3913043 41.893 11.3913043 43.25L11.3913043 43.25zM42.4 50.625L42.4 45.7083333"/>
    <path fill="#FFFFFF" d="M43.6086957,44.4791667 C43.6086957,45.1576667 43.0535652,45.7083333 42.3695652,45.7083333 C41.6855652,45.7083333 41.1304348,45.1576667 41.1304348,44.4791667 C41.1304348,43.8006667 41.6855652,43.25 42.3695652,43.25 C43.0535652,43.25 43.6086957,43.8006667 43.6086957,44.4791667 L43.6086957,44.4791667 Z"/>
  </g>
</svg>
