<svg xmlns="http://www.w3.org/2000/svg" width="16" height="25" viewBox="0 0 16 25">
  <g fill="none" fill-rule="evenodd" stroke="#784BC9" stroke-linecap="round" stroke-linejoin="round">
    <path d="M15.5 21.957934C15.5 23.0854483 14.604 24.0005325 13.5 24.0005325L2.5 24.0005325C1.396 24.0005325.5 23.0854483.5 21.957934L.5 2.55324814C.5 1.42573376 1.396.510649627 2.5.510649627L13.5.510649627C14.604.510649627 15.5 1.42573376 15.5 2.55324814L15.5 21.957934 15.5 21.957934zM15.5 4.59584665L.5 4.59584665M15.5 19.9153355L.5 19.9153355M5.5 2.55324814L10.5 2.55324814"/>
    <path d="M8.5,21.957934 C8.5,22.2398126 8.276,22.4685836 8,22.4685836 C7.724,22.4685836 7.5,22.2398126 7.5,21.957934 C7.5,21.6760554 7.724,21.4472843 8,21.4472843 C8.276,21.4472843 8.5,21.6760554 8.5,21.957934 L8.5,21.957934 Z"/>
  </g>
</svg>
