<svg xmlns="http://www.w3.org/2000/svg" width="44" height="44" viewBox="0 0 44 44">
  <g fill="none" fill-rule="evenodd">
    <ellipse cx="21.983" cy="22" stroke="#784BC9" rx="21.483" ry="21.5"/>
    <path fill="#784BC9" d="M10.4768424,7.85779164 C10.4768424,9.30031568 9.30031568,10.4768424 7.85779164,10.4768424 C6.4152676,10.4768424 5.2387409,9.30031568 5.2387409,7.85779164 C5.2387409,6.4152676 6.4152676,5.2387409 7.85779164,5.2387409 C9.30031568,5.2387409 10.4768424,6.4152676 10.4768424,7.85779164 Z M11.8886744,7.85779164 C11.8886744,5.62750624 10.088077,3.82690886 7.85779164,3.82690886 C5.62750624,3.82690886 3.82690886,5.62750624 3.82690886,7.85779164 C3.82690886,10.088077 5.62750624,11.8886744 7.85779164,11.8886744 C10.088077,11.8886744 11.8886744,10.088077 11.8886744,7.85779164 Z M12.9935865,3.66321819 C12.9935865,3.14145417 12.5741291,2.72199683 12.0523651,2.72199683 C11.5306011,2.72199683 11.1111437,3.14145417 11.1111437,3.66321819 C11.1111437,4.1849822 11.5306011,4.60443955 12.0523651,4.60443955 C12.5741291,4.60443955 12.9935865,4.1849822 12.9935865,3.66321819 Z M7.85779164,1.41247146 C9.00362634,1.41247146 11.4589864,1.32039545 12.4922838,1.72962213 C12.8503571,1.87285147 13.1163545,2.04677281 13.3925825,2.32300082 C13.6688105,2.59922882 13.8427318,2.86522616 13.9859611,3.22329951 C14.3951878,4.25659687 14.3031118,6.71195694 14.3031118,7.85779164 C14.3031118,9.00362634 14.3951878,11.4589864 13.9859611,12.4922838 C13.8427318,12.8503571 13.6688105,13.1163545 13.3925825,13.3925825 C13.1163545,13.6688105 12.8503571,13.8427318 12.4922838,13.9859611 C11.4589864,14.3951878 9.00362634,14.3031118 7.85779164,14.3031118 C6.71195694,14.3031118 4.25659687,14.3951878 3.22329951,13.9859611 C2.86522616,13.8427318 2.59922882,13.6688105 2.32300082,13.3925825 C2.04677281,13.1163545 1.87285147,12.8503571 1.72962213,12.4922838 C1.32039545,11.4589864 1.41247146,9.00362634 1.41247146,7.85779164 C1.41247146,6.71195694 1.32039545,4.25659687 1.72962213,3.22329951 C1.87285147,2.86522616 2.04677281,2.59922882 2.32300082,2.32300082 C2.59922882,2.04677281 2.86522616,1.87285147 3.22329951,1.72962213 C4.25659687,1.32039545 6.71195694,1.41247146 7.85779164,1.41247146 Z M15.7149439,7.85779164 C15.7149439,6.77334094 15.7251745,5.69912091 15.6637905,4.61467021 C15.6024065,3.35629818 15.3159479,2.24115548 14.3951878,1.32039545 C13.4744278,0.399635428 12.3592851,0.113176753 11.1009131,0.0517927515 C10.0164624,-0.00959125027 8.94224234,0.000639416685 7.85779164,0.000639416685 C6.77334094,0.000639416685 5.69912091,-0.00959125027 4.61467021,0.0517927515 C3.35629818,0.113176753 2.24115548,0.399635428 1.32039545,1.32039545 C0.399635428,2.24115548 0.113176753,3.35629818 0.0517927515,4.61467021 C-0.00959125027,5.69912091 0.000639416685,6.77334094 0.000639416685,7.85779164 C0.000639416685,8.94224234 -0.00959125027,10.0164624 0.0517927515,11.1009131 C0.113176753,12.3592851 0.399635428,13.4744278 1.32039545,14.3951878 C2.24115548,15.3159479 3.35629818,15.6024065 4.61467021,15.6637905 C5.69912091,15.7251745 6.77334094,15.7149439 7.85779164,15.7149439 C8.94224234,15.7149439 10.0164624,15.7251745 11.1009131,15.6637905 C12.3592851,15.6024065 13.4744278,15.3159479 14.3951878,14.3951878 C15.3159479,13.4744278 15.6024065,12.3592851 15.6637905,11.1009131 C15.7251745,10.0164624 15.7149439,8.94224234 15.7149439,7.85779164 Z" transform="translate(13.75 13.75)"/>
  </g>
</svg>
