<?xml version="1.0" encoding="utf-8"?>
<!-- Generator: Adobe Illustrator 18.0.0, SVG Export Plug-In . SVG Version: 6.00 Build 0)  -->
<!DOCTYPE svg PUBLIC "-//W3C//DTD SVG 1.1//EN" "http://www.w3.org/Graphics/SVG/1.1/DTD/svg11.dtd" [
	<!ENTITY ns_extend "http://ns.adobe.com/Extensibility/1.0/">
	<!ENTITY ns_ai "http://ns.adobe.com/AdobeIllustrator/10.0/">
	<!ENTITY ns_graphs "http://ns.adobe.com/Graphs/1.0/">
	<!ENTITY ns_vars "http://ns.adobe.com/Variables/1.0/">
	<!ENTITY ns_imrep "http://ns.adobe.com/ImageReplacement/1.0/">
	<!ENTITY ns_sfw "http://ns.adobe.com/SaveForWeb/1.0/">
	<!ENTITY ns_custom "http://ns.adobe.com/GenericCustomNamespace/1.0/">
	<!ENTITY ns_adobe_xpath "http://ns.adobe.com/XPath/1.0/">
]>
<svg version="1.1" id="Vector_Graphics" xmlns:x="&ns_extend;" xmlns:i="&ns_ai;" xmlns:graph="&ns_graphs;"
	 xmlns="http://www.w3.org/2000/svg" xmlns:xlink="http://www.w3.org/1999/xlink" x="0px" y="0px" width="360.224121px"
	 height="419.650757px" viewBox="0 0 360.224121 419.650757" enable-background="new 0 0 360.224121 419.650757"
	 xml:space="preserve">
<metadata>
	<sfw  xmlns="&ns_sfw;">
		<slices></slices>
		<sliceSourceBounds  width="360.224121" height="419.650757" bottomLeftOrigin="true" x="219.228302" y="-522.666199">
			</sliceSourceBounds>
	</sfw>
</metadata>
<g>
	<g>
		<g>
			<path fill="#060503" d="M186.351791,4.772183c2.408203-2.3872,5.257797-4.6899,8.843704-4.7427
				c5.584-0.4101,9.938492,3.5542,14.595688,5.9097c6.929703,1.3247,13.953201,2.1665,20.894608,3.4805
				c4.121094-2.3135,9.274399-3.270101,13.710907-1.251c3.312485,1.3242,5.111298,4.6582,8.012695,6.5298
				c5.973602,2.302699,12.219696,4.016599,17.739319,7.339799l0.136688,0.073301l0.136688,0.0532
				c4.133789,2.7124,9.160095-0.4102,13.324188,2.145c4.416016,1.776899,6.308624,6.372099,9.274414,9.694798
				c4.164093,3.281303,9.044006,5.531303,13.197296,8.854c4.237305-0.620098,8.926727,0.767601,11.451202,4.3853
				c2.786102,3.533203,2.944305,8.591301,6.446289,11.619602c6.708008,6.73,12.890594,14.048298,17.811523,22.197796
				c4.627899-0.9991,10.274384-0.915092,13.754883,2.786606c6.876892,7.486801,6.08783,21.472099-3.343811,26.572701
				c-0.041992,0.031799-0.126892,0.094795-0.168884,0.125999l-1.587006-0.084503
				c-1.355408-0.220695-2.669891-0.1474-3.962799,0.221199c-0.632904,0.231499-1.893585,0.693901-2.525391,0.925301
				l-0.682709,0.283699c-0.031189,0.410202-0.106384,1.251999-0.137573,1.672401l-0.262726,1.429703
				c-0.188507,0.525795-0.557709,1.556595-0.747101,2.082001l-0.219696,1.0728
				c-0.231476,0.494598-0.694397,1.482895-0.925812,1.976501c0.168915,2.482399-1.386688,4.626999-2.385803,6.761696
				l-0.064392,0.115303l-0.041992,0.116196c-10.041992,23.417496-27.456116,43.082001-47.277405,58.781708
				c-7.348602,6.056198-15.699188,10.746094-24.321198,14.700195l-0.106506,0.052704l-0.104492,0.052795l-1.818298,0.977493
				c-0.032288,0.010803-0.085999,0.042007-0.117188,0.052811c-4.374023,2.302689-8.810608,4.510696-13.459015,6.204102
				l-0.105499,0.041901l-0.115204,0.063492c-7.802689,3.775406-16.004898,6.6875-24.269501,9.253006
				c7.9599,5.458893,16.277298,11.388596,20.400299,20.484299c0.041107,0.042999,0.114304,0.136703,0.146515,0.179703
				l-0.126907,1.397491c0.2314,0.505798,0.705093,1.504898,0.936493,2.008804c1.944305,2.544891,1.2939,6.298798,1.314499,9.368103
				c-0.48439,9.758789-7.750992,18.656281-17.33989,20.7901c0.053696,3.985291,3.753891,6.351501,4.522491,10.074188
				c3.86911,15.625,3.216812,32.428711-2.1035,47.645508c-1.335999,4.373993-4.3965,8.233398-4.459,12.954102
				c-0.662094,11.797791,3.144501,23.523407,0.862305,35.300812c1.471695,0.652283,2.944305,1.314392,4.437515,1.955994
				l0.084885,0.041992l0.084,0.042999c9.158203,3.80661,16.970703,13.962891,13.858398,24.205109
				c-2.366196,3.239197-6.718704,4.080078-10.420898,4.93158c-13.144501,2.587921-26.867203,3.996124-40.105392,1.314514
				c-4.911209,4.322205-11.514709,5.540985-17.666992,7.067291c-21.093307,4.426819-43.74321,3.426819-63.764214-4.943298
				c-2.419395-1.292999-6.204597-2.848602-6.204597-5.961884c-0.189003-0.504913-0.567398-1.535217-0.757301-2.050812
				c-2.817894-5.593811-0.756798-12.861298,2.755798-17.855499c-0.641998-0.808594-1.272896-1.607391-1.903297-2.407196
				c1.871101-12.428711,4.311104-24.954102,3.154297-37.571289c-1.261688-7.771515-5.846687-14.427704-8.191399-21.862305
				c-4.868599-14.426819-3.428696-30.063507-0.420395-44.722717c0.125496-1.818298,1.755898-2.774384,2.922897-3.911102
				c1.135696-5.605499,2.523903-11.157196,3.975098-16.677704c-4.090401-7.686493-3.049797-16.876984,0.0625-24.689484
				c1.630302-4.574203,4.5429-8.527298,6.499001-12.933609c-1.566391-0.294891-2.944389-0.914993-4.132797-1.861298
				c-0.525902-0.158203-1.577698-0.474594-2.0923-0.63089l-0.77829-0.284103c-0.515213-0.210007-1.535713-0.651398-2.050308-0.8741
				c-1.798401,0.085999-3.428696-0.798798-5.079102-1.367096c-13.638702-5.488312-27.20359-11.366302-39.822304-18.926804
				l-0.104996-0.0625l-0.1157-0.063507c-15.699699-8.39209-30.0527-19.1064-43.501999-30.71579
				c-4.290499,1.219193-9.074698,1.650391-13.102499-0.673309c-0.021-0.0103-0.073199-0.031296-0.105-0.041992
				c-7.582-3.354507-10.7788-13.2388-7.0239-20.505402c1.7769-3.102097,5.0786-4.741699,8.180699-6.203598
				c0.431107-3.933105,0.809501-7.876007,1.6513-11.745605c-0.5581-2.166504-1.3466-4.469299-0.5473-6.677299
				c0.7675-2.766098,3.4389-4.364204,4.5527-6.929703c0.862801-2.060997,1.4517-4.226997,2.0718-6.362297
				c-0.819799-2.964798-1.5347-6.393501,0.305201-9.137703c1.976999-3.932602,6.8769-5.141998,8.748499-9.116699
				c2.482401-4.532196,5.278801-8.875397,8.212399-13.123497c-0.714397-4.164101,0.210903-8.969704,3.712402-11.671906
				c2.786598-2.261196,7.002899-1.525398,9.453106-4.258797c3.522999-3.680599,7.414093-6.960899,11.125999-10.431099
				c0.914494-2.229,0.704094-4.879402,2.166-6.877399c3.964394-4.774002,10.357391-7.381401,16.519493-6.172401
				c5.857002-3.649399,12.008301-6.7827,18.04451-10.116199c0.357391-2.8071,1.251389-5.7407,3.690887-7.434101
				c4.952599-3.207499,11.304199-3.849099,16.9189-2.1982c8.170502-3.322299,16.698807-5.624999,25.248108-7.738799
				c1.776794-3.7539,4.836899-7.5918,9.379395-7.624c4.490204-0.5567,8.444305,1.83,12.471191,3.3232
				C171.105194,4.950383,178.728699,4.603683,186.351791,4.772183z M190.189697,4.593483
				c4.753891,0.1367,9.516602,0.4521,14.270493,0.5781C200.263885,2.594983,194.291199,0.996783,190.189697,4.593483z
				 M145.237,7.674083c4.553299-0.6832,9.117188-1.3667,13.670395-2.0821C154.532898,2.742383,148.665298,3.888883,145.237,7.674083
				z M120.462593,18.242384c7.823708,3.596199,16.687996,7.8125,19.947807,16.435598
				c-2.376007-1.241299-4.131912-3.2808-6.130402-5.0054c-5.183609-4.500999-11.356407-7.7495-17.823204-9.979
				c-12.0298,5.0786-23.733902,10.914501-34.911697,17.665499c6.540604,2.377003,14.469299,4.553204,17.781799,11.325203
				c-0.304703,0.199699-0.904305,0.578598-1.198799,0.767597c-4.405701-3.585499-9.053703-7.013699-14.6586-8.496597
				c-1.819405-0.472702-3.638206-0.925301-5.457603-1.377399c-9.558098,6.729897-19.453098,13.185997-27.454998,21.808998
				c3.900806,0.272999,7.760201,1.241299,11.1245,3.2813c2.145496,1.3564,5.015594,2.4814,5.478996,5.320801
				c-6.109398-2.639702-12.188-5.752403-18.938499-6.330601c-7.896999,8.244198-14.3853,17.697803-20.031698,27.592304
				c6.2143-0.599106,13.333002-0.389107,17.886702,4.532196c-6.4146-0.788498-13.028801-3.196701-19.453602-1.103996
				c-4.006399,5.898994-6.078199,12.860397-8.885799,19.369698c4.7637-1.105003,10.810101-0.9468,13.9224,3.4272
				c-4.826193-0.725601-10.105-2.187004-14.731499,0.147995c-2.8188,6.729507-3.7963,14.100998-4.4482,21.314407
				c2.0713,0.504898,4.0898,1.209503,5.9624,2.229492c0.0103,0.535706,0.0415,1.587402,0.063,2.113312
				c-2.7451-0.325714-5.3418-2.46051-8.1704-1.430206c-4.7534,1.156693-8.2549,5.668503-8.0449,10.610397
				c0.6103,2.870605,1.1567,5.982895,3.438406,8.064896c5.184594,5.626007,14.858892,5.962906,20.053694,0.137207
				c0.251999,0.409698,0.756399,1.250992,1.0196,1.661606c-0.5889,0.70459-1.7451,2.123596-2.334,2.828186
				c23.260199,21.073212,51.072708,36.562912,80.158707,48.003403c23.585396,8.223602,48.581001,13.2715,73.639091,12.230408
				c4.931702,0.1875,8.959-3.3125,13.838913-3.566406c3.332993-0.578094,6.698288,1.042007,9.998993,0.126999
				c28.33989-7.476593,56.015686-18.181595,81.033203-33.576202c28.822296-20.1689,52.333984-49.454086,60.904297-84.007797
				c1.356506,0.746605,2.082092,1.9561,1.945282,3.606506c5.238312,1.766594,9.737305-2.964905,11.388702-7.465401
				c1.314514-4.605904,0.167999-9.737305-2.513702-13.639099c-2.671783-3.616707-7.716766-3.984901-11.734283-2.807205
				c0.503876,0.515205,1.525391,1.545403,2.029297,2.061104c-0.705109,0.809502-1.567413,1.377396-2.565521,1.703598
				c-4.606384-10.252502-11.862274-18.981003-19.569275-27.066898c-0.031219,2.176697-0.158203,4.353497-0.36911,6.519497
				c-0.545898-0.1474-1.660187-0.441399-2.217804-0.599602c-0.041992-1.082497-0.073303-2.1763-0.094696-3.259796
				c-0.07431-1.977001,0.693298-4.5317-1.104492-6.003899c-7.855499-7.518501-16.561615-14.122002-25.762695-19.8955
				c0.767578,2.734398,1.357391,5.5103,1.640594,8.338898c-0.55661,0.178699-1.662109,0.536602-2.218781,0.714802
				c-0.304626-1.524403-0.589813-3.049301-0.831024-4.5737l-0.220703-0.105499
				c-0.503906-2.250401-1.104492-4.479504-1.766602-6.6875c-10.925781-6.562002-22.429688-12.155703-34.395493-16.572702
				c1.145493,2.3979,2.249008,4.805601,3.375992,7.2246c0.093719,0.903801,0.283203,2.7017,0.376892,3.606401
				c-2.691376-0.704102-3.227478-3.690901-4.310486-5.835901c-1.525406-2.565899-2.523499-6.225599-5.794998-7.002899
				c-11.945297-3.6074-24.214798-6.2046-36.614197-7.6348c1.766602,2.1558,3.4814,4.3428,5.174789,6.5513
				c1.766602,3.3022,3.710907,6.982399,2.691406,10.841299c-3.154297-3.9746-4.121094-9.295399-7.613297-13.123099
				c-1.524399-1.6616-3.091797-3.2812-4.732407-4.8266c-13.73439-1.3672-27.548798-1.3985-41.335892-0.8623
				c0.389099,0.5151,1.177689,1.5351,1.567291,2.0508l0.335999-0.0318c3.091309,3.6275,6.930099,6.6455,9.421799,10.767599
				c0.936111,1.5776,1.830109,3.711901,0.379013,5.352501c-4.195801-6.561501-9.064011-12.7129-15.195404-17.5923
				C148.738495,9.619884,134.185791,12.774183,120.462593,18.242384z M234.828293,9.829783
				c4.080093,1.3565,8.318405,2.229,12.556702,2.954599C243.818588,10.103283,239.265793,8.568083,234.828293,9.829783z
				 M98.580292,24.908882c4.416504-2.050798,8.812004-4.122099,13.1968-6.2568
				C106.687698,18.283882,100.966995,20.029984,98.580292,24.908882z M277.983582,25.235083
				c3.2276,1.7661,6.393616,3.659201,9.558594,5.5415C285.617401,27.275084,281.905487,25.350283,277.983582,25.235083z
				 M61.660896,47.306381c4.216301-2.481499,8.223099-5.330597,12.039497-8.390598
				C68.726791,39.778084,63.542702,42.291183,61.660896,47.306381z M309.519714,44.856682
				c2.765686,2.786602,5.763672,5.331501,8.758789,7.8652C316.953278,48.778484,313.609589,45.697983,309.519714,44.856682z
				 M36.455296,72.901581c2.4077-2.724098,4.784199-5.489296,6.929199-8.433601
				C39.903996,66.024582,36.770195,68.89518,36.455296,72.901581z M20.492895,98.874184
				c-0.683599,0.746597-1.1045,3.1446,0.325701,3.1968c0.872499-0.777802,1.725105-2.408203,0.841801-3.4487
				C21.376196,98.68528,20.787296,98.811279,20.492895,98.874184z M213.723785,221.737488
				c0.652405,0.778397,1.314499,1.567398,1.9776,2.356491c3.238312,3.982407,5.699203,8.526306,7.317398,13.394501
				c1.326111-1.113297,2.524414-4.332001,4.605408-2.511703c-0.692307,5.14061-6.8349,7.191406-11.018494,9.052704
				c1.218689,5.742203,1.303696,11.694397,0.0625,17.434601c-1.292999,2.807617-2.681702,5.573212-4.553711,8.043915
				c7.518509,0.747101,15.469711,1.357483,22.587906-1.691406c6.656204-2.746094,11.578094-9.160095,12.3759-16.330002
				l-0.125-0.263702c0.325195-4.564499,0.104492-9.431702-2.398407-13.408203
				c-4.19429-7.245102-10.410187-13.3535-17.7715-17.361298l-0.682602-0.851608l-1.209991,0.621109l1.104492-0.757797
				C221.748291,218.245285,217.718994,220.696487,213.723785,221.737488z M113.249191,244.365479
				c-0.441399,4.470703-0.1577,9.359299,2.545006,13.134705c3.890594,6.224609,11.082993,9.179688,17.928703,10.830109
				c14.038086,3.964783,29.600586,2.071289,42.303192-5.089813c-6.571808-6.19339-7.045395-16.224594-4.122101-24.300797
				c-8.927704,0.883804-18.096695,2.019501-26.940399-0.104492c-2.334-1.093811-6.435593-0.545914-7.287094-3.417999
				c1.977493-1.871109,4.553207,0.190399,6.7827,0.494186c-0.452103-1.872101-0.946304-3.721695-1.451202-5.573288
				c-0.883301-1.460907-1.766602-2.901413-2.68161-4.342804c-5.962387-0.850494-11.788086-2.3759-17.634789-3.774399
				C117.886391,228.709183,114.153496,236.248276,113.249191,244.365479z M202.798996,224.756088
				c1.113297,2.207001,2.060593,4.498993,3.048889,6.7715c4.701111,1.408188,7.791,5.373001,9.884705,9.599594
				c1.693405-0.820297,3.386795-1.650406,5.046906-2.523499c-2.66011-5.625-5.667999-11.104507-9.400406-16.099594
				C208.529495,223.293182,205.668198,224.072479,202.798996,224.756088z M187.088089,225.605682
				c-5.351593,1.557602-8.485291,6.499008-11.166992,11.0215c-3.439011,6.099594-3.774902,13.564407-1.503387,20.136703
				c1.514175,3.228485,4.731888,4.858398,8.180176,5.088898c-1.071289-3.532288-0.957092-7.211899,0.810501-10.493195
				c0.136703-3.785202-0.482391-8.350601,3.175812-10.800812c3.375-0.082001,6.7715,0.832108,9.222687,3.239304
				c2.132812,2.345703,6.109314,1.608398,7.968704-0.672897c1.736298-2.648407-0.892593-5.656204-3.480499-6.266602
				c-4.005798-1.157196-8.1689-0.252899-12.248001-0.243103c-0.106491-0.451202-0.316391-1.334-0.42189-1.775391
				c5.236298-2.482498,11.167999-1.019608,16.530289,0.261688c-0.50589-1.670898-1.020493-3.637695-2.872101-4.269485
				c-4.384689-1.419006-8.947189,0.220688-13.354492-0.177811v-1.115204c4.006897-3.007797,9.370102-1.440399,13.997101-1.787094
				C198.561707,222.851776,191.935791,224.166183,187.088089,225.605682z M143.860092,226.479691
				c1.534607,3.144485,2.744095,6.424789,3.5849,9.821289c4.890198,1.219696,9.916504,0.43071,14.869202,0.883804
				c-0.220703-3.292007-1.566406-6.309601-3.144104-9.147507C154.048996,227.742386,148.938705,227.17308,143.860092,226.479691z
				 M162.219894,228.215088c1.272003,2.785095,2.239304,5.709,2.954605,8.695297
				c2.544998-0.167999,5.089386-0.294907,7.633789-0.368195c1.756409-2.932602,3.659698-5.7724,5.752502-8.465805
				C173.113495,228.361588,167.666199,228.424988,162.219894,228.215088z M207.203293,243.42009
				c-2.775299,3.512695-8.358398,6.508789-12.386703,3.3125c-2.156204-1.441406-4.468704-4.070312-7.318298-2.712799
				c-1.135803,1.912994-1.492203,4.322189-0.809586,6.454987c2.59758,3.523499,7.44429,3.934601,10.336884,7.056717
				c-1.818405,0.020477-3.638702-0.041016-5.446304-0.199219c-2.178696-1.218781-4.2285-2.629898-6.362289-3.912186
				c0.094711,2.060593-0.831009,4.878983,1.1875,6.308578c2.681702,1.756927,5.900391,2.377014,8.875992,3.502014
				l-0.326202,1.892609c-3.450195-0.294922-7.098587-0.830109-9.873993-3.09082
				c1.302704,4.247009,6.078094,6.392517,10.230499,6.719727c4.385696,0.230377,8.960907,0.84079,13.218704-0.578125
				l0.347702,0.051697c2.870087-2.723572,5.025391-6.120087,5.677689-10.063477l-0.084-0.367218
				c1.693405-8.570297-0.767593-18.370987-8.044891-23.723587C205.216995,237.299088,208.013885,240.17009,207.203293,243.42009z
				 M115.078796,261.707275c-1.524406,5.783203-2.933601,11.607422-4.290504,17.444305
				c10.463409,8.065399,25.563499,4.889587,34.975105-3.281311c-0.116211-0.652283-0.336899-1.934479-0.442398-2.577087
				c-6.519501-0.440399-13.027802-1.628906-19.063904-4.163086C122.134995,267.353668,117.80249,265.43869,115.078796,261.707275z
				 M169.769699,269.709198c0.084,1.744171,0.179199,3.49118,0.262695,5.236298
				c1.419495,0.293976,2.829102,0.683594,4.290604,0.810577c8.075699,1.96582,16.624496,2.081024,24.732895,0.177704
				c2.565399,0.316406,1.681595-2.177704,1.428696-3.74408c-6.391602-0.136719-13.985397-1.124023-17.287094-7.445312
				C177.929398,263.777588,174.291199,267.951385,169.769699,269.709198z M147.666199,273.336182
				c0.809601,2.692291,1.630386,5.489197,3.522507,7.655212c3.280792,4.458984,10.914993,3.953186,13.996094-0.484314
				c2.166-2.901398,2.156189-6.676788,2.376907-10.115295C161.072998,272.189697,154.396194,273.200378,147.666199,273.336182z
				 M202.966995,272.568573c1.356491,4.521515,4.761703,9.570312,10.084,9.263702
				c4.953094,0.201111,8.181595-4.510803,9.433594-8.769592C215.974792,272.443573,209.486496,271.926971,202.966995,272.568573z
				 M225.143784,272.662292c-0.378891,1.220703-0.766586,2.451202-1.1465,3.670898
				c2.229507,0.220703,4.469711,0.40918,6.7099,0.588898c-0.263596-1.555695-0.515594-3.132812-0.757797-4.690399
				C228.340088,272.368378,226.742386,272.515869,225.143784,272.662292z M168.528488,278.047089l0.820297,0.273407
				c-1.440399,1.777374-2.4814,3.88089-4.184998,5.436584c-3.133301,2.650391-7.623993,2.944305-11.482391,2.102509
				c-3.491211-1.177704-5.447311-4.573212-7.466309-7.402313c-6.204102,5.961914-15.01619,8.644501-23.523491,7.886719
				c-5.246605,0.242188-9.947205-2.365326-14.048302-5.363312c-2.565399,11.746094-3.785698,23.997101-1.734901,35.910187
				c1.861305,10.242126,8.506897,18.928711,10.062996,29.253906c0.999001,11.767517-0.641098,23.502899-2.334,35.122009
				c-0.841293,3.385803,3.596207,3.963898,5.857002,4.900391c8.843697,3.154297,18.359795,1.703094,27.077095-1.073181
				l-0.084-0.924805c3.879898-0.273499,7.413101-2.07132,11.157211-2.944397c4.762695-1.103516,9.694901-1.851501,14.595291-1.2724
				c1.156708,0.17868,2.313004,0.34668,3.480896,0.514587c2.270508-8.738312,2.166-17.822205,1.76561-26.771484
				c-0.798798-4.279327,3.816498-6.172821,6.06839-8.9599l-0.105499-0.588898c1.083008-0.61911,2.365311-0.441406,3.533203-0.199219
				c-1.419891,3.407196-4.416,5.626892-6.971603,8.126892c1.934509,10.044006-0.662598,20.023499-1.114792,30.054718
				c3.533691,2.1875,7.465302,4.226593,11.692902,2.575195c11.115189-1.891602,21.357391-7.580994,32.755798-8.09671
				c0.914093,0.031311,2.723694,0.085999,3.626999,0.115295c1.998993-10.072296-0.220703-20.24118-0.830109-30.315399
				c-0.832001-9.032288,4.78421-16.708099,7.014709-25.099701c3.248001-13.712799,3.858398-28.434479-0.832108-41.893494
				c-1.05069,0.104492-2.091797,0.220703-3.123001,0.326202c-2.501999-0.13681-4.994202-0.441406-7.486298-0.347687
				c-2.682693,1.978485-5.00589,4.837891-8.560593,5.184601c-4.941406,0.651276-9.336899-2.53421-12.029297-6.414124
				C191.094894,281.054871,179.601791,279.971893,168.528488,278.047089z M189.527588,387.943573
				c5.363205,4.700195,9.759705,11.179718,9.547806,18.601501c6.3311,1.525421,12.839905,2.230499,19.348602,2.197296
				c7.761795,0.306702,15.3311-1.828094,22.787201-3.710876c1.839798-0.599609,4.111298-0.56842,5.594696-1.914124
				c1.650391-5.267578-0.22171-11.166992-3.942398-15.110291c-4.554703-4.741211-10.705109-8.370209-17.447311-8.402405
				C212.840088,379.373291,201.978699,387.281494,189.527588,387.943573z M137.150589,390.750183
				c-6.466797,0.894592-12.986298-0.199188-19.074699-2.416992c-0.872597-0.305603-1.734894-0.598602-2.607399-0.88382
				c-3.765198,5.5625-4.669495,13.869202-0.725594,19.527405l-0.010803,0.273407
				c5.815002,4.552795,13.2071,5.994202,20.315498,7.161194c19.138199,3.458893,39.253906,2.680603,57.634293-3.985382
				l-0.009796-0.199219c3.943405-0.779297,3.217804-5.269501,2.76561-8.212891
				c-1.566406-6.656311-6.939407-11.410217-12.482407-14.93161c-5.372589-3.787201-12.113297-5.026398-18.548294-3.94339
				C154.995789,384.400574,146.467499,389.049072,137.150589,390.750183z"/>
		</g>
		<path fill="#060503" d="M242.734589,110.147186c15.828125-8.8013,31.757812-17.571304,48.507812-24.522507
			c0.201202,0.515701,0.589783,1.535202,0.780304,2.050804c-15.805725,6.929703-30.873993,15.341797-46.21582,23.197296
			C244.619385,111.577385,242.084183,112.565681,242.734589,110.147186z"/>
		<path fill="#060503" d="M345.344879,100.357185c-0.725494-5.089401,2.671906-10.031799,7.698303-11.114799
			c0.251892,0.325699,0.757812,0.9888,0.998016,1.314499c-3.731415,2.176201-6.960907,5.551697-6.572205,10.210899
			C346.931885,100.661781,345.881073,100.462585,345.344879,100.357185z"/>
		<g>
			<path fill="#060503" d="M267.267792,104.069084c7.667999-2.1343,16.246094-0.883301,22.997986,3.322701
				c15.17392,9.348701,21.872101,30.368698,14.669006,46.709991c-3.859406,9.147903-11.545898,17.034714-21.262695,19.726608
				c-12.133789,3.091705-25.404297-2.818405-32.544891-12.808197c-10.357498-14.584412-9.136703-36.687904,3.837891-49.327606
				C258.435791,108.306885,262.599792,105.478287,267.267792,104.069084z M256.7854,113.448486
				c-5.920914,5.416-8.970703,13.2705-10.137695,21.0625c17.580994-4.395508,35.300781-8.559105,52.188477-15.247101
				c-4.763702-7.381805-12.69339-13.018105-21.641602-13.491699C269.634979,105.005081,262.232574,108.401085,256.7854,113.448486z
				 M292.189697,124.09008c0.821289,2.671402-0.283203,6.298805-3.479523,6.530205
				c-2.344696,0.284195-3.439484-2.166-4.69046-3.648399c-12.323212,4.079597-24.912109,7.286598-37.519531,10.346703
				c0.126007,2.661102,0.369202,5.310501,0.714905,7.950195c19.537109-2.134796,38.507812-7.708496,57.026306-14.090805
				c-1.083008-3.259796-2.283203-6.466797-3.723602-9.580093C297.711182,122.355186,294.923981,123.144279,292.189697,124.09008z
				 M247.773697,147.676483c3.291,11.798294,13.059494,22.397903,25.519485,24.216797
				c9.348602,0.915009,19.160095-3.375504,24.660095-11.041504c5.962006-7.518097,8.44342-17.507797,6.960022-26.971191
				C286.239502,139.78978,267.394714,145.930878,247.773697,147.676483z"/>
		</g>
		<path fill="#060503" d="M81.765793,117.223885c-0.073196-3.0811,3.512703-1.461998,5.289604-1.419502
			c18.212395,3.711899,36.677696,6.204102,54.764595,10.546898c-0.736298,2.965309-3.775803,1.114304-5.679199,0.988304
			c-16.613701-3.417-33.469696-5.499001-50.1054-8.748604C84.563194,118.285881,83.132996,117.833687,81.765793,117.223885z"/>
		<g>
			<path fill="#060503" d="M108.170593,126.666679c16.750504-2.775795,34.574203,7.591805,40.221695,23.627998
				c6.477112,16.972107-0.862793,38.539505-17.6035,46.468201c-15.520493,7.434601-35.583992,0.705109-44.826691-13.4814
				c-7.297806-10.809601-9.538101-25.467789-4.027802-37.518097C87.034897,135.804382,96.982094,128.17009,108.170593,126.666679z
				 M92.217995,136.940689c-5.5625,4.4897-8.611801,11.187897-10.420403,17.938889
				c21.188904-2.092789,42.430199-3.533691,63.639603-5.320297c-3.501907-7.781693-9.874496-14.186005-17.760704-17.508301
				C116.214592,126.887383,101.861092,128.885483,92.217995,136.940689z M132.702896,153.386887
				c-0.567902,2.281799-0.9991,5.352097-3.764191,5.930191c-3.259811,0.630905-5.605003-2.355392-6.488815-5.121094
				c-13.743095,0.851593-27.476494,2.061493-41.177696,3.512192c-0.084496,3.1436,0.021004,6.309601,0.630798,9.411209
				c22.1661,0.346603,44.438004-1.713898,65.952202-7.181702c-0.178207-2.555603-0.662094-5.079102-1.335007-7.550293
				C141.914291,152.786789,137.308792,153.091476,132.702896,153.386887z M82.418198,170.127182
				c2.039505,7.781204,6.7192,14.752396,13.049797,19.695297c11.051704,9.011703,28.696297,10.34671,39.937004,0.977509
				c8.433594-6.729507,12.74559-17.550308,12.786591-28.181107C126.772194,168.339081,104.510994,169.916687,82.418198,170.127182z"
				/>
		</g>
		<path fill="#060503" d="M6.412796,152.418686c-0.3369-2.586395,2.9443-2.975601,4.815906-2.807602
			c4.606,0.725601,9.589894,4.164505,9.642594,9.264099c-2.7759-1.345703-3.7012-4.815903-6.646-5.940903
			C11.807296,151.630081,8.999701,152.019287,6.412796,152.418686z"/>
		<path fill="#060503" d="M198.423996,150.22139c2.092789-1.1147,3.270599,1.0513,4.542999,2.3237
			c4.015594,4.658295,8.475601,8.948792,12.218796,13.848694c-3.3125,3.733398-7.181702,8.360306-12.471695,8.686005
			c2.555603-3.375504,6.163101-5.699203,9.201202-8.590805c-0.7686-0.977997-1.536209-1.956497-2.3125-2.913101
			C205.869385,159.127686,201.568588,155.142288,198.423996,150.22139z"/>
		<path fill="#060503" d="M223.218994,192.965988c-1.503006-2.007812-8.244202-3.4487-5.068405-6.424805
			c3.753906,2.429703,8.159195,4.490799,10.36911,8.591797c-2.85051,0.966797-5.858414,0.609406-8.791,0.378006
			c-4.259705,3.449203-8.675705,6.698196-12.955002,10.126892c-0.347702-0.537094-1.031311-1.60939-1.376999-2.144501
			c1.197296-0.905289,2.3965-1.788101,3.595688-2.67189c2.175812-1.608398,4.291-3.3125,6.372101-5.037109
			c-4.773499,0.820312-9.559601,1.545898-14.322296,2.397507c-5.478485,0.579102-11.073196,0.873001-16.508804-0.220703
			c-3.996094-0.683594-7.560501-2.859406-11.577591-3.480499c0.862289-2.807602,3.323196-4.2798,6.214798-3.522507
			c-0.420898,0.904312-0.831009,1.798401-1.262207,2.703201c4.5215,1.639603,9.275406,2.817307,14.121109,2.596603
			C202.505096,195.858582,212.652588,192.135483,223.218994,192.965988z"/>
	</g>
	<g>
		<path fill="#D9C1A9" d="M190.189697,4.593483c4.101501-3.5967,10.074188-1.9985,14.270493,0.5781
			C199.706299,5.045583,194.943588,4.730183,190.189697,4.593483z"/>
		<path fill="#F3E1C9" d="M145.237,7.674083c3.428299-3.7852,9.295898-4.9317,13.670395-2.0821
			C154.354187,6.307383,149.790298,6.990883,145.237,7.674083z"/>
		<path fill="#D9C1A9" d="M166.898697,7.569083c13.787094-0.5362,27.601501-0.5049,41.335892,0.8623
			c1.64061,1.5454,3.208008,3.165,4.732407,4.8266c-6.5625-1.220201-13.112289-2.7133-19.810501-2.7548
			c-8.139709,0.031199-16.215408-2.2613-24.354507-0.9151l-0.335999,0.0318
			C168.076385,9.104183,167.287796,8.084183,166.898697,7.569083z"/>
		<path fill="#D9C1A9" d="M212.714096,8.988483c12.399399,1.4302,24.6689,4.0274,36.614197,7.6348
			c3.2715,0.7773,4.269592,4.437,5.794998,7.002899c-9.443405-3.2495-19.095703-5.920399-28.791107-8.296399
			c-2.787094-0.841801-5.667892-0.4311-8.443298,0.21C216.195496,13.331284,214.480698,11.144283,212.714096,8.988483z"/>
		<path fill="#D9C1A9" d="M234.828293,9.829783c4.4375-1.261701,8.990295,0.273499,12.556702,2.954599
			C243.146698,12.058784,238.908386,11.186283,234.828293,9.829783z"/>
		<path fill="#F3E1C9" d="M98.580292,24.908882c2.386703-4.878899,8.107407-6.625,13.1968-6.2568
			C107.392296,20.786783,102.996796,22.858084,98.580292,24.908882z"/>
		<path fill="#D9C1A9" d="M255.680893,18.631083c11.965805,4.417,23.469711,10.0107,34.395493,16.572702
			c0.662109,2.207996,1.262695,4.437099,1.766602,6.6875c-5.026398-2.3969-9.705109-5.457001-14.678711-7.949703
			c-5.888672-2.996998-11.357391-7.307598-18.107391-8.085899C257.929901,23.436684,256.826385,21.028982,255.680893,18.631083z"/>
		<path fill="#D9C1A9" d="M277.983582,25.235083c3.921906,0.1152,7.63382,2.040001,9.558594,5.5415
			C284.377197,28.894283,281.211182,27.001183,277.983582,25.235083z"/>
		<path fill="#D9C1A9" d="M293.4729,37.516785c9.20108,5.773499,17.907196,12.376999,25.762695,19.8955
			c1.797791,1.472198,1.030182,4.026897,1.104492,6.003899c-5.099609-3.596199-9.50589-8.0546-14.564514-11.713799
			c-3.281189-2.324203-6.30957-5.909702-10.662079-5.846703C294.830292,43.027084,294.240479,40.251183,293.4729,37.516785z"/>
		<path fill="#D9C1A9" d="M61.660896,47.306381c1.881805-5.015198,7.065895-7.528297,12.039497-8.390598
			C69.883995,41.975784,65.877197,44.824883,61.660896,47.306381z"/>
		<path fill="#D9C1A9" d="M309.519714,44.856682c4.089874,0.841301,7.433563,3.921803,8.758789,7.8652
			C315.283386,50.188183,312.2854,47.643284,309.519714,44.856682z"/>
		<path fill="#D9C1A9" d="M322.652588,67.275581c0.210907-2.166,0.337891-4.3428,0.36911-6.519497
			c7.707001,8.085896,14.962891,16.814396,19.569275,27.066898c-0.537079,0.188904-1.620087,0.578102-2.156189,0.767601
			C335.302979,80.892784,330.455292,72.607185,322.652588,67.275581z"/>
		<path fill="#D9C1A9" d="M36.455296,72.901581c0.314899-4.006401,3.4487-6.876999,6.929199-8.433601
			C41.239494,67.412285,38.862995,70.177483,36.455296,72.901581z"/>
		<path fill="#D9C1A9" d="M343.127197,84.058281c4.017517-1.177696,9.0625-0.809502,11.734283,2.807205
			c2.681702,3.901794,3.828217,9.033195,2.513702,13.639099c-1.651398,4.500496-6.150391,9.231995-11.388702,7.465401
			c4.017609-1.167,7.834015-3.512306,9.275421-7.645103c1.619171-2.912598,0.378876-6.129898-0.86319-8.8955l-0.357513-0.872498
			c-0.240204-0.325699-0.746124-0.9888-0.998016-1.314499c-2.36618-1.630402-5.194397-2.260704-7.886688-3.123001
			C344.652588,85.603683,343.631073,84.573486,343.127197,84.058281z"/>
		<path fill="#FCFAF8" d="M292.189697,124.09008c2.734283-0.945801,5.521484-1.734894,8.328094-2.492195
			c1.440399,3.113297,2.640594,6.320297,3.723602,9.580093c-18.518494,6.382309-37.489197,11.956009-57.026306,14.090805
			c-0.345703-2.639694-0.588898-5.289093-0.714905-7.950195c12.607422-3.060104,25.19632-6.267105,37.519531-10.346703
			c1.250977,1.482399,2.345764,3.932594,4.69046,3.648399C291.906494,130.388885,293.010986,126.761482,292.189697,124.09008z"/>
		<path fill="#FCFAF8" d="M132.702896,153.386887c4.605896-0.29541,9.211395-0.600098,13.817291-0.999496
			c0.672913,2.471191,1.156799,4.99469,1.335007,7.550293c-21.514198,5.467804-43.786102,7.528305-65.952202,7.181702
			c-0.609795-3.101608-0.715294-6.267609-0.630798-9.411209c13.701202-1.450699,27.434601-2.660599,41.177696-3.512192
			c0.883812,2.765701,3.229004,5.751999,6.488815,5.121094C131.703796,158.738983,132.134995,155.668686,132.702896,153.386887z"/>
		<path fill="#D9C1A9" d="M207.203293,243.42009c0.810593-3.25-1.986298-6.121002-0.777298-9.348602
			c7.277298,5.3526,9.738297,15.15329,8.044891,23.723587c-1.441391-5.804596-1.67189-11.956985-4.490189-17.361298
			C209.054886,241.431885,208.130096,242.431885,207.203293,243.42009z"/>
		<path fill="#7AB0D4" d="M225.416183,379.604675c6.742203,0.032196,12.892609,3.661194,17.447311,8.402405
			c3.720688,3.943298,5.592789,9.842712,3.942398,15.110291c-1.483398,1.345703-3.754898,1.314514-5.594696,1.914124
			c1.1259-0.388702,2.260696-0.789124,3.396393-1.176819c-0.294891-3.934601-0.294891-8.161102-2.638596-11.537079
			C238.466995,385.987488,232.031494,382.065674,225.416183,379.604675z"/>
		<path fill="#7AB0D4" d="M164.406998,383.138885c6.434998-1.083008,13.175705,0.156189,18.548294,3.94339
			c5.542999,3.521393,10.916,8.275299,12.482407,14.93161c0.452194,2.94339,1.177795,7.433594-2.76561,8.212891
			C193.440598,395.357574,179.433289,381.277588,164.406998,383.138885z"/>
	</g>
	<g>
		<g>
			<path fill="#F3E1C9" d="M120.462593,18.242384c13.723198-5.468201,28.275902-8.6225,42.944801-10.126501
				c6.131393,4.8794,10.999603,11.0308,15.195404,17.5923c1.451096-1.6406,0.557098-3.7749-0.379013-5.352501
				c-2.491699-4.122099-6.33049-7.1401-9.421799-10.767599c8.139099-1.3462,16.214798,0.9463,24.354507,0.9151
				c6.698212,0.0415,13.248001,1.534599,19.810501,2.7548c3.492203,3.827701,4.459,9.148499,7.613297,13.123099
				c1.019501-3.8589-0.924805-7.539099-2.691406-10.841299c2.775406-0.6411,5.656204-1.051801,8.443298-0.21
				c9.695404,2.376,19.347702,5.046899,28.791107,8.296399c1.083008,2.145,1.61911,5.1318,4.310486,5.835901
				c-0.093689-0.904701-0.283173-2.7026-0.376892-3.606401c6.75,0.778301,12.218719,5.088902,18.107391,8.085899
				c4.973602,2.492702,9.652313,5.552803,14.678711,7.949703l0.220703,0.105499
				c0.241211,1.524399,0.526398,3.049297,0.831024,4.5737c0.556671-0.1782,1.66217-0.536102,2.218781-0.714802
				c4.352509-0.063,7.38089,3.522499,10.662079,5.846703c5.058624,3.659199,9.464905,8.117599,14.564514,11.713799
				c0.021393,1.083496,0.052704,2.177299,0.094696,3.259796c0.557617,0.158203,1.671906,0.452202,2.217804,0.599602
				c7.802704,5.331604,12.650391,13.617203,17.782196,21.315002c0.536102-0.189499,1.61911-0.578697,2.156189-0.767601
				c0.998108-0.326202,1.860413-0.894096,2.565521-1.703598c2.692291,0.862297,5.520508,1.492599,7.886688,3.123001
				c-5.026398,1.083-8.423798,6.025398-7.698303,11.114799c0.536194,0.1054,1.587006,0.304596,2.124115,0.410599
				c0.905182,0.1465,1.808594,0.2939,2.723602,0.441399c0.757782-3.512703,2.198181-6.803703,4.206116-9.7798
				c1.242065,2.765602,2.482361,5.982903,0.86319,8.8955c-1.441406,4.132797-5.257812,6.478104-9.275421,7.645103
				c0.13681-1.650406-0.588776-2.859901-1.945282-3.606506c-8.570312,34.553711-32.082001,63.838898-60.904297,84.007797
				c-25.017517,15.394608-52.693314,26.099609-81.033203,33.576202c-3.300705,0.915009-6.666-0.705093-9.998993-0.126999
				c-4.879913,0.253906-8.907211,3.753906-13.838913,3.566406c-25.05809,1.041092-50.053696-4.006805-73.639091-12.230408
				c-29.085999-11.440491-56.898506-26.930191-80.158707-48.003403c0.5889-0.70459,1.7451-2.123596,2.334-2.828186
				c2.628899,4.805191,7.770998,7.191895,11.7983,10.609894c11.02,9.285202,23.4282,16.750992,35.731499,24.196304
				c7.203102,4.468689,15.247002,7.213898,22.933998,10.683594c6.6875,2.955109,13.344299,6.445297,20.747101,7.066406
				c-4.773903-3.575211-10.242195-6.088898-14.963402-9.737305c-11.987793-8.6436-21.346596-20.305695-29.748497-32.314499
				c-16.7402-24.038101-19.337898-55.6894-12.082001-83.513199c3.4384-10.547302,6.572197-21.3256,12.1035-31.010204
				c3.059998-5.983398,7.170898-11.335499,10.147003-17.350597c5.604897,1.482899,10.252899,4.911098,14.6586,8.496597
				c0.294495-0.188999,0.894096-0.567898,1.198799-0.767597c-3.3125-6.771999-11.241196-8.9482-17.781799-11.325203
				c11.177795-6.750998,22.881897-12.586899,34.911697-17.665499c6.466797,2.2295,12.639595,5.478001,17.823204,9.979
				c1.998489,1.7246,3.754395,3.764101,6.130402,5.0054C137.150589,26.054884,128.286301,21.838583,120.462593,18.242384z
				 M242.734589,110.147186c-0.650406,2.418495,1.884796,1.430199,3.072296,0.725594
				c15.341827-7.855499,30.410095-16.267593,46.21582-23.197296c-0.190521-0.515602-0.579102-1.535103-0.780304-2.050804
				C274.492401,92.575882,258.562714,101.345886,242.734589,110.147186z M267.267792,104.069084
				c-4.667999,1.409203-8.832001,4.237801-12.302704,7.623497c-12.974594,12.639702-14.195389,34.743195-3.837891,49.327606
				c7.140594,9.989792,20.411102,15.899902,32.544891,12.808197c9.716797-2.691895,17.40329-10.578705,21.262695-19.726608
				c7.203094-16.341293,0.504913-37.36129-14.669006-46.709991C283.513885,103.185783,274.935791,101.934784,267.267792,104.069084z
				 M81.765793,117.223885c1.367203,0.609802,2.797401,1.061996,4.2696,1.367096
				c16.635704,3.249603,33.491699,5.331604,50.1054,8.748604c1.903397,0.125999,4.942902,1.977005,5.679199-0.988304
				c-18.086899-4.342796-36.5522-6.834999-54.764595-10.546898C85.278496,115.761887,81.692596,114.142784,81.765793,117.223885z
				 M108.170593,126.666679c-11.188499,1.50341-21.135696,9.137703-26.236298,19.096703
				c-5.5103,12.050308-3.270004,26.708496,4.027802,37.518097c9.242699,14.186508,29.306198,20.916,44.826691,13.4814
				c16.740707-7.928696,24.080612-29.496094,17.6035-46.468201C142.744797,134.258484,124.921097,123.890884,108.170593,126.666679z
				 M198.423996,150.22139c3.144592,4.920898,7.445389,8.906296,11.178802,13.354492
				c-2.766602,3.427704-7.151413,6.645996-6.888702,11.503906c5.289993-0.325699,9.159195-4.952606,12.471695-8.686005
				c-3.743195-4.899902-8.203201-9.190399-12.218796-13.848694C201.694595,151.27269,200.516785,149.106689,198.423996,150.22139z
				 M223.218994,192.965988c-10.566406-0.830505-20.713898,2.892593-31.189499,3.291992
				c-4.845703,0.220703-9.599609-0.957001-14.121109-2.596603c0.431198-0.9048,0.841309-1.798889,1.262207-2.703201
				c-2.891602-0.757294-5.352509,0.714905-6.214798,3.522507c4.01709,0.621094,7.581497,2.796906,11.577591,3.480499
				c5.435608,1.093704,11.030319,0.799805,16.508804,0.220703c-2.638702,0.673798-5.289093,1.262695-7.992203,1.578094
				c5.311508,0.420898,10.7061-0.116196,15.942398,1.061508c-1.199188,0.883789-2.398392,1.766602-3.595688,2.67189
				c0.345688,0.53511,1.029297,1.607407,1.376999,2.144501c4.279297-3.428696,8.695297-6.677689,12.955002-10.126892
				c2.932587,0.2314,5.940491,0.588791,8.791-0.378006c-2.209915-4.100998-6.615204-6.162094-10.36911-8.591797
				C214.974792,189.517288,221.715988,190.958176,223.218994,192.965988z"/>
		</g>
		<path fill="#F3E1C9" d="M256.7854,113.448486c5.447174-5.047401,12.849579-8.443405,20.40918-7.6763
			c8.948212,0.473595,16.877899,6.109894,21.641602,13.491699c-16.887695,6.687996-34.607483,10.851593-52.188477,15.247101
			C247.814697,126.718987,250.864487,118.864487,256.7854,113.448486z"/>
		<path fill="#F3E1C9" d="M92.217995,136.940689c9.643097-8.055206,23.996597-10.053307,35.458496-4.889709
			c7.886208,3.322296,14.258797,9.726608,17.760704,17.508301c-21.209404,1.786606-42.450699,3.227509-63.639603,5.320297
			C83.606194,148.128586,86.655495,141.430389,92.217995,136.940689z"/>
		<path fill="#F3E1C9" d="M247.773697,147.676483c19.621017-1.745605,38.465805-7.886703,57.139603-13.795898
			c1.483398,9.463394-0.998016,19.453094-6.960022,26.971191c-5.5,7.666-15.311493,11.956512-24.660095,11.041504
			C260.833191,170.074387,251.064697,159.474777,247.773697,147.676483z"/>
		<path fill="#F3E1C9" d="M2.290296,152.461182c-0.21-4.941895,3.2915-9.453705,8.0449-10.610397
			c2.8286-1.030304,5.4253,1.104492,8.1704,1.430206c-0.284201,1.566895,0.882799,4.143097-1.0723,4.847595
			c-3.0395,0.189499-6.1098-0.756805-9.1177-0.136703C6.086596,149.148682,4.256596,150.925476,2.290296,152.461182z"/>
		<path fill="#F3E1C9" d="M82.418198,170.127182c22.092796-0.210495,44.353996-1.788101,65.773392-7.508301
			c-0.041,10.630798-4.352997,21.451599-12.786591,28.181107c-11.240707,9.369202-28.8853,8.034195-39.937004-0.977509
			C89.137398,184.879578,84.457703,177.908386,82.418198,170.127182z"/>
		<path fill="#E3D348" d="M226.783386,220.453384c7.361313,4.007797,13.577209,10.116196,17.7715,17.361298
			c2.502899,3.976501,2.723602,8.843704,2.398407,13.408203c-2.408203-4.954102-3.880798-10.348709-6.740204-15.080109
			C236.689697,230.138885,230.832184,226.049088,226.783386,220.453384z"/>
		<path fill="#F3E1C9" d="M187.088089,225.605682c4.847702-1.439499,11.473618-2.753906,14.837906,2.1465
			c-4.626999,0.346695-9.990204-1.220703-13.997101,1.787094v1.115204c4.407303,0.398499,8.969803-1.241196,13.354492,0.177811
			c1.851608,0.63179,2.366211,2.598587,2.872101,4.269485c-5.362289-1.281296-11.293991-2.744186-16.530289-0.261688
			c0.105499,0.441391,0.315399,1.324188,0.42189,1.775391c4.079102-0.009796,8.242203-0.914093,12.248001,0.243103
			c2.587906,0.610397,5.216797,3.618195,3.480499,6.266602c-1.85939,2.281296-5.835892,3.0186-7.968704,0.672897
			c-2.451187-2.407196-5.847687-3.321304-9.222687-3.239304c-2.55571,0.052811-5.2061,1.158203-6.141113,3.733414
			c-1.724594,4.2901-2.860382,8.928696-6.025375,12.471695c-2.271515-6.572296-1.935623-14.037109,1.503387-20.136703
			C178.602798,232.104691,181.736496,227.163284,187.088089,225.605682z"/>
		<path fill="#F3E1C9" d="M207.203293,243.42009c0.926804-0.988205,1.851593-1.988205,2.777405-2.986313
			c2.818298,5.404312,3.048798,11.556702,4.490189,17.361298l0.084,0.367218
			c-7.623993,0.557678-15.489288,0.947296-22.975601-0.830017c1.807602,0.158203,3.627899,0.219696,5.446304,0.199219
			c-2.892593-3.122116-7.739304-3.533218-10.336884-7.056717c-0.682617-2.132797-0.326218-4.541992,0.809586-6.454987
			c2.849594-1.357513,5.162094,1.271393,7.318298,2.712799C198.844894,249.928879,204.427994,246.932785,207.203293,243.42009z"/>
		<path fill="#F3E1C9" d="M195.310791,268.752197c-4.152405-0.327209-8.927795-2.472717-10.230499-6.719727
			c2.775406,2.260712,6.423798,2.795898,9.873993,3.09082c-0.116196,0.705078-0.242188,1.410095-0.357391,2.123993
			c4.647491,0.094696,9.315399,0.22171,13.932602,0.926788C204.271698,269.592987,199.696487,268.982574,195.310791,268.752197z"/>
	</g>
	<g>
		<path fill="#AE242B" d="M270.148712,22.038282c0.075073,0.0317,0.20108,0.0942,0.273376,0.126501l-0.136688-0.0532
			L270.148712,22.038282z"/>
		<path fill="#AE242B" d="M352.169189,110.546585c0.041992-0.031204,0.126892-0.0942,0.168884-0.125999
			C352.296082,110.452385,352.211182,110.515381,352.169189,110.546585z"/>
		<path fill="#AE242B" d="M338.668182,127.002686l0.064392-0.115303c-0.033173,0.063499-0.084869,0.178703-0.106384,0.231499
			L338.668182,127.002686z"/>
		<path fill="#AE242B" d="M8.599796,165.973389c0.0318,0.010696,0.084,0.031693,0.105,0.041992
			C8.683796,166.005081,8.631597,165.984085,8.599796,165.973389z"/>
		<path fill="#AE242B" d="M65.309296,197.40448l0.1157,0.063507l0.104996,0.0625
			C65.466995,197.498276,65.361496,197.435776,65.309296,197.40448z"/>
		<path fill="#AE242B" d="M266.921082,200.653488l0.106506-0.052704c-0.052795,0.031296-0.158203,0.074203-0.210999,0.105499
			L266.921082,200.653488z"/>
		<path fill="#AE242B" d="M264.881104,201.736588c0.031189-0.010803,0.0849-0.042007,0.117188-0.052811
			C264.966003,201.69458,264.912292,201.725784,264.881104,201.736588z"/>
		<path fill="#AE242B" d="M251.316589,207.98259l0.105499-0.041901c-0.053696,0.031189-0.158203,0.073196-0.220703,0.105392
			L251.316589,207.98259z"/>
		<path fill="#AE242B" d="M143.860092,226.479691c5.078613,0.69339,10.188904,1.262695,15.309998,1.557587
			c1.577698,2.837906,2.923401,5.855499,3.144104,9.147507c-4.952698-0.453094-9.979004,0.335892-14.869202-0.883804
			C146.604187,232.90448,145.394699,229.624176,143.860092,226.479691z"/>
		<path fill="#AE242B" d="M247.332184,237.783386c0.041107,0.042999,0.114304,0.136703,0.146515,0.179703
			C247.446487,237.92009,247.373291,237.826385,247.332184,237.783386z"/>
		<path fill="#AE242B" d="M122.691597,286.343994c8.507301,0.757782,17.319389-1.924805,23.523491-7.886719
			c2.018997,2.829102,3.975098,6.224609,7.466309,7.402313c3.858398,0.841797,8.349091,0.547882,11.482391-2.102509
			c1.703598-1.555695,2.744598-3.65921,4.184998-5.436584c0.504913,0.167999,1.50441,0.494202,1.998108,0.652374
			c-2.376495,2.986328-4.542496,6.46582-8.117706,8.128906c-6.246094,1.786102-13.5439-1.040985-19.211395,2.902313
			c-5.952194,4.593781-6.729996,12.764679-6.740692,19.737305c-0.084503,13.774475,8.127899,26.014679,7.8974,39.789093
			c-0.420914,11.819305-4.312012,23.208008-4.87941,35.015594c2.397507-0.104492,4.794998-0.208984,7.192398-0.376892
			l0.084,0.924805c-8.7173,2.776276-18.233398,4.227478-27.077095,1.073181c-2.260796-0.936493-6.698296-1.514587-5.857002-4.900391
			c1.692902-11.61911,3.333-23.354492,2.334-35.122009c-1.556099-10.325195-8.201691-19.01178-10.062996-29.253906
			c-2.050797-11.913086-0.830498-24.164093,1.734901-35.910187C112.744392,283.978668,117.444992,286.586182,122.691597,286.343994z
			"/>
		<path fill="#AE242B" d="M187.98259,343.947479l1.177795,0.251892c0.726501,5.015717-3.3965,9.181702-2.628891,14.175812
			c1.145493,8.359406,0.462891,16.781311,0.75679,25.183594c1.428711,0.388702,2.861313,0.789093,4.300812,1.145508
			c-4.2276,1.651398-8.15921-0.387695-11.692902-2.575195c0.452194-10.031219,3.049301-20.010712,1.114792-30.054718
			C183.566589,349.574371,186.562698,347.354675,187.98259,343.947479z"/>
		<path fill="#AE242B" d="M235.522705,379.458191c0.041992,0.020477,0.125992,0.063507,0.168884,0.084991l-0.084-0.042999
			L235.522705,379.458191z"/>
	</g>
	<g>
		<g>
			<path fill="#D9C1A9" d="M78.011894,39.577885c1.819397,0.452099,3.638199,0.904697,5.457603,1.377399
				c-2.976105,6.015099-7.087006,11.367199-10.147003,17.350597c-5.531303,9.684605-8.6651,20.462902-12.1035,31.010204
				c-7.255898,27.823799-4.658199,59.475098,12.082001,83.513199c8.401901,12.008804,17.760704,23.670898,29.748497,32.314499
				c4.721207,3.648407,10.189499,6.162094,14.963402,9.737305c-7.402802-0.621109-14.059601-4.111298-20.747101-7.066406
				c-7.686996-3.469696-15.730896-6.214905-22.933998-10.683594c-12.303299-7.445312-24.711498-14.911102-35.731499-24.196304
				c-4.027302-3.417999-9.169401-5.804703-11.7983-10.609894c-0.263201-0.410614-0.767601-1.251907-1.0196-1.661606
				c-5.194801,5.825699-14.869101,5.4888-20.053694-0.137207c-2.281706-2.082001-2.828106-5.19429-3.438406-8.064896
				c1.9663-1.535706,3.7963-3.3125,6.0253-4.469299c3.007899-0.620102,6.078199,0.326202,9.1177,0.136703
				c1.955099-0.704498,0.788099-3.280701,1.0723-4.847595c-0.0215-0.525909-0.0527-1.577606-0.063-2.113312
				c-1.872601-1.019989-3.891101-1.724594-5.9624-2.229492c0.6519-7.213409,1.6294-14.5849,4.4482-21.314407
				c4.626499-2.334999,9.905306-0.873596,14.731499-0.147995c-3.112299-4.374001-9.158699-4.532204-13.9224-3.4272
				c2.8076-6.5093,4.8794-13.470703,8.885799-19.369698c6.424801-2.092705,13.039001,0.315498,19.453602,1.103996
				c-4.553699-4.921303-11.672401-5.131302-17.886702-4.532196c5.646399-9.894501,12.134699-19.348106,20.031698-27.592304
				c6.7505,0.578197,12.829102,3.690899,18.938499,6.330601c-0.463402-2.839401-3.3335-3.964401-5.478996-5.320801
				c-3.3643-2.040001-7.223694-3.008301-11.1245-3.2813C58.558796,52.763882,68.453796,46.307781,78.011894,39.577885z
				 M6.412796,152.418686c2.586905-0.399399,5.3945-0.788605,7.8125,0.515594c2.944799,1.125,3.8701,4.5952,6.646,5.940903
				c-0.0527-5.099594-5.036594-8.538498-9.642594-9.264099C9.357096,149.443085,6.075896,149.832291,6.412796,152.418686z"/>
		</g>
		<path fill="#D9C1A9" d="M347.468994,100.767784c-0.388702-4.659203,2.84079-8.034698,6.572205-10.210899l0.357513,0.872498
			c-2.007935,2.976097-3.448334,6.267097-4.206116,9.7798C349.277588,101.061684,348.374176,100.914284,347.468994,100.767784z"/>
		<path fill="#D9C1A9" d="M209.602798,163.575882c0.776291,0.956604,1.5439,1.935104,2.3125,2.913101
			c-3.038101,2.891602-6.645599,5.215302-9.201202,8.590805C202.451385,170.221878,206.836197,167.003586,209.602798,163.575882z"/>
		<path fill="#D9C1A9" d="M201.042191,198.181885c4.762695-0.851608,9.548798-1.577194,14.322296-2.397507
			c-2.0811,1.724609-4.196289,3.428711-6.372101,5.037109c-5.236298-1.177704-10.63089-0.64061-15.942398-1.061508
			C195.753098,199.44458,198.403488,198.855682,201.042191,198.181885z"/>
		<path fill="#D9C1A9" d="M180.443085,244.292191c0.935013-2.575211,3.585403-3.680603,6.141113-3.733414
			c-3.658203,2.450211-3.039108,7.01561-3.175812,10.800812c-1.767593,3.281296-1.88179,6.960907-0.810501,10.493195
			c-3.448288-0.230499-6.666-1.860413-8.180176-5.088898C177.582703,253.220886,178.718491,248.582291,180.443085,244.292191z"/>
		<path fill="#D9C1A9" d="M185.216995,253.42009c2.133789,1.282288,4.183594,2.693405,6.362289,3.912186
			c7.486313,1.777313,15.351608,1.387695,22.975601,0.830017c-0.652298,3.94339-2.807602,7.339905-5.677689,10.063477
			l-0.347702-0.051697c-4.617203-0.705078-9.28511-0.832092-13.932602-0.926788
			c0.115204-0.713898,0.241196-1.418915,0.357391-2.123993l0.326202-1.892609c-2.975601-1.125-6.19429-1.745087-8.875992-3.502014
			C184.385986,258.299072,185.311707,255.480682,185.216995,253.42009z"/>
		<path fill="#AE242B" d="M147.666199,273.336182c6.729996-0.135803,13.406799-1.146484,19.895508-2.944397
			c-0.220718,3.438507-0.210907,7.213898-2.376907,10.115295c-3.0811,4.4375-10.715302,4.943298-13.996094,0.484314
			C149.296585,278.825378,148.4758,276.028473,147.666199,273.336182z"/>
		<path fill="#AE242B" d="M202.966995,272.568573c6.519501-0.641602,13.007797-0.125,19.517593,0.49411
			c-1.251999,4.258789-4.480499,8.970703-9.433594,8.769592C207.728699,282.138885,204.323486,277.090088,202.966995,272.568573z"/>
		<path fill="#AE242B" d="M230.201385,279.740479c1.031204-0.105499,2.072311-0.22171,3.123001-0.326202
			c4.690506,13.459015,4.080109,28.180695,0.832108,41.893494c-2.230499,8.391602-7.84671,16.067413-7.014709,25.099701
			c0.609406,10.074219,2.829102,20.243103,0.830109,30.315399c-0.903305-0.029297-2.712906-0.083984-3.626999-0.115295
			c2.366302-12.492096-2.839798-25.005798-0.66301-37.518494c0.820312-5.206085,3.207001-9.948212,5.248001-14.752899
			c3.006821-6.960999,3.859406-14.594788,4.542999-22.082092C234.134995,294.59787,232.410385,287.027588,230.201385,279.740479z"/>
		<path fill="#AE242B" d="M176.278992,351.570496c1.881897-3.207001,4.469299-6.319305,8.170395-7.423798l0.105499,0.588898
			c-2.251892,2.787079-6.867188,4.680573-6.06839,8.9599c0.400391,8.94928,0.504898,18.033173-1.76561,26.771484
			c-1.167892-0.167908-2.324188-0.335907-3.480896-0.514587c1.240707-6.21582,2.786102-12.493195,2.333908-18.885803
			C175.605698,357.922089,174.690598,354.484589,176.278992,351.570496z"/>
	</g>
	<g>
		<path fill="#E3D348" d="M213.723785,221.737488c3.995209-1.041,8.024506-3.492203,12.2715-2.2724l-1.104492,0.757797
			c-2.912094,1.609406-6.055603,2.744095-9.189407,3.871094C215.038284,223.304886,214.37619,222.515884,213.723785,221.737488z"/>
		<path fill="#E3D348" d="M113.249191,244.365479c0.904305-8.117203,4.637199-15.656296,9.442406-22.144592
			c5.846703,1.398499,11.672401,2.923904,17.634789,3.774399c0.915009,1.441391,1.798309,2.881897,2.68161,4.342804
			c-0.315399,0.642593-0.957001,1.9151-1.283203,2.555695c-4.689896,1.629898-10.778305,3.154297-12.491699,8.465805
			c-0.768005,5.13089-1.420395,11.744095,3.038605,15.445282c4.342789,3.523499,10.252899,3.734406,15.5737,4.323303
			c7.865311,0.861298,15.499496-1.609406,23.017593-3.512695c-2.943802-5.04689-1.535095-10.799789-0.599106-16.183594
			c-9.674789,0.167892-19.295898-0.683609-28.9487-1.019608c1.209412-0.525391,2.428207-1.051697,3.648407-1.577087
			c8.843704,2.123993,18.012695,0.988297,26.940399,0.104492c-2.923294,8.076202-2.449707,18.107407,4.122101,24.300797
			c-12.702606,7.161102-28.265106,9.054596-42.303192,5.089813c-6.845711-1.650421-14.038109-4.605499-17.928703-10.830109
			C113.091492,253.724777,112.807793,248.836182,113.249191,244.365479z"/>
		<path fill="#E3D348" d="M162.219894,228.215088c5.446304,0.2099,10.8936,0.1465,16.340897-0.138702
			c-2.092804,2.693405-3.996094,5.533203-5.752502,8.465805c-2.544403,0.073288-5.088791,0.200195-7.633789,0.368195
			C164.459198,233.924088,163.491898,231.000183,162.219894,228.215088z"/>
		<path fill="#E3D348" d="M228.834198,258.929871c6.802689-0.220673,12.566391-4.142593,18.244095-7.443283
			c-0.797806,7.169907-5.719696,13.583908-12.3759,16.330002c-7.118195,3.048889-15.069397,2.438507-22.587906,1.691406
			c1.872009-2.470703,3.260712-5.236298,4.553711-8.043915C219.750198,257.941589,224.764893,259.518768,228.834198,258.929871z"/>
		<path fill="#E3D348" d="M115.078796,261.707275c2.723694,3.731415,7.056198,5.646393,11.178299,7.422821
			c6.036102,2.53418,12.544403,3.722687,19.063904,4.163086c0.105499,0.642609,0.326187,1.924805,0.442398,2.577087
			c-9.411606,8.170898-24.511696,11.34671-34.975105,3.281311C112.145195,273.314697,113.55439,267.490479,115.078796,261.707275z"
			/>
		<path fill="#E3D348" d="M169.769699,269.709198c4.5215-1.757812,8.159698-5.93161,13.427795-4.964813
			c3.301697,6.321289,10.895493,7.308594,17.287094,7.445312c0.252899,1.566376,1.136703,4.060486-1.428696,3.74408
			c-4.491196-0.378906-8.876007-1.545898-13.355499-2.030304c-3.901398-0.471588-7.644501,0.967804-11.377396,1.8526
			c-1.461502-0.126984-2.871109-0.516602-4.290604-0.810577C169.948898,273.200378,169.853699,271.453369,169.769699,269.709198z"/>
	</g>
	<g>
		<path fill="#FDF15F" d="M215.701385,224.093979c3.133804-1.126999,6.277313-2.261688,9.189407-3.871094l1.209991-0.621109
			l0.682602,0.851608c4.048798,5.595703,9.906311,9.685501,13.429703,15.689392
			c2.859406,4.7314,4.332001,10.126007,6.740204,15.080109l0.125,0.263702c-5.677704,3.30069-11.441406,7.22261-18.244095,7.443283
			c-4.069305,0.588898-9.084-0.988281-12.166,2.53421c1.241196-5.740204,1.156189-11.692398-0.0625-17.434601
			c4.183594-1.861298,10.326187-3.912094,11.018494-9.052704c-2.080994-1.820297-3.279297,1.398407-4.605408,2.511703
			C221.400589,232.620285,218.939697,228.076385,215.701385,224.093979z"/>
		<path fill="#FDF15F" d="M202.798996,224.756088c2.869202-0.683609,5.730499-1.462906,8.580093-2.251999
			c3.732407,4.995087,6.740295,10.474594,9.400406,16.099594c-1.66011,0.873093-3.3535,1.703201-5.046906,2.523499
			c-2.093704-4.226593-5.183594-8.191406-9.884705-9.599594C204.859589,229.255081,203.912292,226.963089,202.798996,224.756088z"/>
		<path fill="#FDF15F" d="M143.007996,230.338089c0.504898,1.851593,0.9991,3.701187,1.451202,5.573288
			c-2.229492-0.303787-4.805206-2.365295-6.7827-0.494186c0.851501,2.872086,4.953094,2.324188,7.287094,3.417999
			c-1.2202,0.525391-2.438995,1.051697-3.648407,1.577087c9.652802,0.335999,19.273911,1.1875,28.9487,1.019608
			c-0.935989,5.383804-2.344696,11.136703,0.599106,16.183594c-7.518097,1.90329-15.152283,4.373993-23.017593,3.512695
			c-5.320801-0.588898-11.230911-0.799805-15.5737-4.323303c-4.459-3.701187-3.80661-10.314392-3.038605-15.445282
			c1.713394-5.311508,7.801804-6.835907,12.491699-8.465805C142.050995,232.253189,142.692596,230.980682,143.007996,230.338089z"/>
		<path fill="#FDF15F" d="M225.143784,272.662292c1.598602-0.146423,3.196304-0.293915,4.805603-0.430603
			c0.242203,1.557587,0.494202,3.134705,0.757797,4.690399c-2.240189-0.179718-4.480392-0.368195-6.7099-0.588898
			C224.377197,275.113495,224.764893,273.882996,225.143784,272.662292z"/>
		<path fill="#FDF15F" d="M174.322998,275.756073c3.732895-0.884796,7.475998-2.324188,11.377396-1.8526
			c4.479492,0.484406,8.864304,1.651398,13.355499,2.030304C190.947495,277.837097,182.398697,277.721893,174.322998,275.756073z"/>
	</g>
	<g>
		<path fill="#C12529" d="M168.528488,278.047089c11.073303,1.924805,22.566406,3.007782,33.59671,0.11618
			c2.692398,3.879913,7.087891,7.065399,12.029297,6.414124c3.554703-0.34671,5.877899-3.206116,8.560593-5.184601
			c2.492096-0.093719,4.984299,0.210876,7.486298,0.347687c2.209,7.287109,3.933609,14.857391,3.2715,22.513611
			c-0.683594,7.487305-1.536179,15.121094-4.542999,22.082092c-2.041,4.804688-4.427689,9.546814-5.248001,14.752899
			c-2.176788,12.512695,3.029312,25.026398,0.66301,37.518494c-11.398407,0.515717-21.64061,6.205109-32.755798,8.09671
			c-1.439499-0.356415-2.872101-0.756805-4.300812-1.145508c-0.2939-8.402283,0.388702-16.824188-0.75679-25.183594
			c-0.767609-4.99411,3.355392-9.160095,2.628891-14.175812l-1.177795-0.251892
			c-1.167892-0.242188-2.450195-0.419891-3.533203,0.199219c-3.701096,1.104492-6.288498,4.216797-8.170395,7.423798
			c-1.588394,2.914093-0.673294,6.351593-0.705093,9.496094c0.452194,6.392609-1.093201,12.669983-2.333908,18.885803
			c-4.900391-0.579102-9.832596,0.168884-14.595291,1.2724c-3.74411,0.873077-7.277313,2.670898-11.157211,2.944397
			c-2.3974,0.167908-4.794891,0.2724-7.192398,0.376892c0.567398-11.807587,4.458496-23.196289,4.87941-35.015594
			c0.230499-13.774414-7.981903-26.014618-7.8974-39.789093c0.010696-6.972626,0.788498-15.143524,6.740692-19.737305
			c5.667496-3.943298,12.965302-1.116211,19.211395-2.902313c3.575211-1.663086,5.741211-5.142578,8.117706-8.128906
			c-0.493698-0.158173-1.493195-0.484375-1.998108-0.652374L168.528488,278.047089z"/>
	</g>
	<g>
		<path fill="#99CFF5" d="M189.527588,387.943573c12.451111-0.662079,23.3125-8.570282,35.888596-8.338898
			c6.615311,2.460999,13.050812,6.382812,16.552811,12.712921c2.343704,3.375977,2.343704,7.602478,2.638596,11.537079
			c-1.135696,0.387695-2.270493,0.788116-3.396393,1.176819c-7.4561,1.882782-15.025406,4.017578-22.787201,3.710876
			c-6.508698,0.033203-13.017502-0.671875-19.348602-2.197296C199.287292,399.123291,194.890793,392.643768,189.527588,387.943573z"
			/>
		<path fill="#99CFF5" d="M137.150589,390.750183c9.31691-1.701111,17.8452-6.349609,27.256409-7.611298
			c15.026291-1.861298,29.0336,12.218689,28.265091,27.087891l0.009796,0.199219
			c-18.380386,6.665985-38.496094,7.444275-57.634293,3.985382C134.311707,406.461182,134.700897,398.396698,137.150589,390.750183z
			"/>
		<path fill="#99CFF5" d="M115.468491,387.449371c0.872505,0.285217,1.734802,0.578217,2.607399,0.88382
			c-2.976097,5.772491-3.028793,12.323303-3.332993,18.643585C110.798996,401.318573,111.703293,393.011871,115.468491,387.449371z"
			/>
	</g>
	<g>
		<path fill="#7AB0D4" d="M118.07589,388.333191c6.088402,2.217804,12.607903,3.311584,19.074699,2.416992
			c-2.449692,7.646515-2.838882,15.710999-2.102997,23.661194c-7.108398-1.166992-14.500496-2.608398-20.315498-7.161194
			l0.010803-0.273407C115.047096,400.656494,115.099792,394.105682,118.07589,388.333191z"/>
	</g>
</g>
</svg>
