<?xml version="1.0" encoding="utf-8"?>
<!-- Generator: Adobe Illustrator 21.1.0, SVG Export Plug-In . SVG Version: 6.00 Build 0)  -->
<svg version="1.1" id="Layer_1" xmlns="http://www.w3.org/2000/svg" xmlns:xlink="http://www.w3.org/1999/xlink" x="0px" y="0px"
	 viewBox="0 0 60 50" style="enable-background:new 0 0 60 50;" xml:space="preserve">
<style type="text/css">
	.st0{fill:#D1D0D5;}
</style>
<path class="st0" d="M9,15.9c-5,0-9,4.1-9,9.1c0,5.1,4,9.2,9,9.2c5.1,0,9-4.1,9-9.2C18,20,14.1,15.9,9,15.9z M9,19.7
	c4.1,0,7.1,2.6,8.4,5.2c-1.3,2.7-4.3,5.3-8.4,5.3c-4.1,0-7.1-2.6-8.4-5.3C1.9,22.3,4.9,19.7,9,19.7C9,19.7,9,19.7,9,19.7z M9,20.1
	c-2.7,0-4.9,2.2-4.9,4.8c0,2.7,2.2,4.9,4.9,4.9s4.8-2.2,4.8-4.9C13.9,22.3,11.7,20.1,9,20.1z"/>
<path class="st0" d="M26.5,32.9c3,0,4.7-1.1,6.3-2.8l-2.2-2.2c-1.2,1.1-2.3,1.8-4,1.8c-2.6,0-4.5-2.2-4.5-4.8v0
	c0-2.6,1.9-4.8,4.5-4.8c1.5,0,2.7,0.7,3.9,1.7l2.2-2.5c-1.4-1.4-3.2-2.4-6.1-2.4c-4.7,0-8,3.6-8,7.9v0.1
	C18.7,29.4,22,32.8,26.5,32.9L26.5,32.9z"/>
<path class="st0" d="M34.1,32.6h7.3c3.5,0,5.8-1.4,5.8-4.2v-0.1c0-2.1-1.1-3.1-2.9-3.8c1.1-0.6,2-1.6,2-3.3v0c0-1.1-0.3-1.9-1.1-2.6
	c-0.9-0.9-2.3-1.4-4-1.4h-7.1L34.1,32.6L34.1,32.6z M37.4,23.4v-3.3h3.3c1.4,0,2.2,0.6,2.2,1.6v0.1c0,1.1-1,1.6-2.4,1.6L37.4,23.4z
	 M37.4,29.6v-3.4h3.9c1.7,0,2.5,0.6,2.5,1.7V28c0,1.1-0.9,1.7-2.4,1.7L37.4,29.6z"/>
<path class="st0" d="M54.4,32.8c3.3,0,5.6-1.7,5.6-4.8v0c0-2.7-1.8-3.8-4.9-4.6c-2.6-0.7-3.3-1-3.3-2v0c0-0.7,0.7-1.4,2-1.4
	s2.6,0.6,4,1.5l1.8-2.6c-1.6-1.2-3.5-2-5.7-2c-3.1,0-5.4,1.8-5.4,4.6v0c0,3.1,2,3.9,5.1,4.7c2.6,0.7,3.1,1.1,3.1,2v0.1
	c0,0.9-0.8,1.4-2.2,1.4c-1.8,0-3.2-0.7-4.6-1.9l-2,2.4C49.7,32,52,32.8,54.4,32.8L54.4,32.8L54.4,32.8z"/>
</svg>
