<?xml version="1.0" encoding="iso-8859-1"?>
<!-- Generator: Adobe Illustrator 21.1.0, SVG Export Plug-In . SVG Version: 6.00 Build 0)  -->
<svg version="1.1" id="Layer_1" xmlns="http://www.w3.org/2000/svg" xmlns:xlink="http://www.w3.org/1999/xlink" x="0px" y="0px"
	 viewBox="0 0 60 50" style="enable-background:new 0 0 60 50;" xml:space="preserve">
<g id="Layer_9">
	<g transform="matrix(0.82302261,0,0,-0.82302261,189.63913,997.27701)">
		<path style="fill:#D1D0D5;" d="M-190.919,1178.309c0-2.258-2.809-2.124-2.809-2.124h-2.809v4.08h2.809
			C-190.835,1180.283-190.919,1178.309-190.919,1178.309 M-196.538,1186.487h2.141c2.224-0.117,2.14-1.773,2.14-1.773
			c0-2.057-2.458-2.09-2.458-2.09h-1.823V1186.487z M-191.437,1181.821c0,0,1.923,0.819,1.906,2.993c0,0,0.292,3.562-4.427,3.997
			h-5.238v-14.933h6.003c0,0,5.017-0.017,5.017,4.214C-188.176,1178.092-188.059,1180.968-191.437,1181.821 M-204.991,1191.737
			h22.049v-20.778h-22.049V1191.737z"/>
	</g>
	<g transform="matrix(0.82302261,0,0,-0.82302261,85.355129,997.27701)">
		<path style="fill:#D1D0D5;" d="M-89.637,1178.309c0-2.258-2.809-2.124-2.809-2.124h-2.809v4.08h2.809
			C-89.553,1180.283-89.637,1178.309-89.637,1178.309 M-95.256,1186.487h2.141c2.224-0.117,2.14-1.773,2.14-1.773
			c0-2.057-2.458-2.09-2.458-2.09h-1.823V1186.487z M-90.155,1181.821c0,0,1.923,0.819,1.906,2.993c0,0,0.292,3.562-4.427,3.997
			h-5.238v-14.933h6.003c0,0,5.017-0.017,5.017,4.214C-86.894,1178.092-86.777,1180.968-90.155,1181.821 M-103.709,1191.737h22.049
			v-20.778h-22.049V1191.737z"/>
	</g>
	<g transform="matrix(0.82302261,0,0,-0.82302261,308.1885,958.5961)">
		<path style="fill:#D1D0D5;" d="M-306.056,1140.742v-2.759c0,0-2.692,1.656-5.669,1.689c0,0-5.552,0.108-5.802-5.322
			c0,0-0.201-4.996,5.736-5.28c0,0,2.492-0.301,5.87,1.856v-2.86c0,0-4.532-2.692-9.783-0.619c0,0-4.415,1.613-4.582,6.902
			c0,0-0.184,5.439,5.702,7.245c0,0,1.572,0.602,4.398,0.335C-310.186,1141.929-308.497,1141.762-306.056,1140.742
			 M-323.606,1123.961h22.049v20.778h-22.049V1123.961z"/>
	</g>
</g>
</svg>
