<?xml version="1.0" encoding="iso-8859-1"?>
<!-- Generator: Adobe Illustrator 21.1.0, SVG Export Plug-In . SVG Version: 6.00 Build 0)  -->
<svg version="1.1" id="Layer_1" xmlns="http://www.w3.org/2000/svg" xmlns:xlink="http://www.w3.org/1999/xlink" x="0px" y="0px"
	 viewBox="0 0 60 50" style="enable-background:new 0 0 60 50;" xml:space="preserve">
<path style="fill:#D1D0D5;" d="M30,47.501c12.427,0,22.5-10.072,22.5-22.5C52.5,12.573,42.427,2.498,30,2.498
	c-12.428,0-22.5,10.074-22.5,22.503C7.5,37.43,17.571,47.501,30,47.501"/>
<path style="fill:#FFFFFF;" d="M21.51,38.438h1.567V12.89H21.51V38.438z"/>
<path style="fill:#666475;" d="M21.51,38.438h1.567V12.89H21.51V38.438z M15.079,22.196c0.027-1.628,2.818-1.675,2.818-0.079
	l0.026,1.384h2.133v-1.279c0.138-4.279-7.194-4.272-7.137-0.106v7.364c-0.057,4.166,7.277,4.271,7.146,0v-1.545h-2.168v1.65
	c0,1.6-2.786,1.625-2.815,0v-7.468L15.079,22.196 M27.267,20.533c0,0,0.373-0.553,1.349-1.093c1.237-0.686,2.448-0.003,2.273-0.079
	c0.975,0.43,1.344,1.478,1.414,2.646v8.717h1.373v1.6h-3.53l-0.002-10.418c0-1.52-2.563-1.472-2.588,0.071l0.003-0.071v10.418
	h-3.167v-1.604l1.005,0.004v-9.762l-1.192-0.007v-1.594h3.055L27.267,20.533 M43.256,29.446c0.068,1.168,0.437,2.216,1.412,2.648
	c-0.183-0.084,0.475,0.244,1.152,0.237c0.356-0.009,2.077-0.007,2.077-0.007v-1.602c0,0-0.868-0.011-1.33-0.007
	c-0.587,0.007-1.094-0.271-1.137-1.097l0.006-8.649l-0.006-0.016h2.083v-1.568h-2.089l0.012-0.026v-3.354h-2.18V29.446
	 M39.332,27.937v1.65c0,1.6-2.787,1.625-2.816,0v-3.436l4.58,0.003c0.216,0,0.395-0.177,0.395-0.397v-3.532
	c0.134-4.279-7.193-4.272-7.135-0.106v7.364c-0.057,4.166,7.277,4.271,7.142,0v-1.545L39.332,27.937L39.332,27.937L39.332,27.937z
	 M36.516,22.108c0.037-1.599,2.816-1.585,2.816,0.011l-0.007,2.408l-2.81,0.001L36.516,22.108"/>
</svg>
