<?xml version="1.0" encoding="utf-8"?>
<!-- Generator: Adobe Illustrator 21.1.0, SVG Export Plug-In . SVG Version: 6.00 Build 0)  -->
<svg version="1.1" id="Layer_1" xmlns="http://www.w3.org/2000/svg" xmlns:xlink="http://www.w3.org/1999/xlink" x="0px" y="0px"
	 viewBox="0 0 60 50" style="enable-background:new 0 0 60 50;" xml:space="preserve">
<style type="text/css">
	.st0{fill:#D1D0D5;}
</style>
<path class="st0" d="M25.1,11.9c-2.3,0.2-4.2,2.1-4.2,4.8v12.9c0,0.5-0.3,0.9-0.8,0.9h-4c-8.7,0-7.9-11.1-0.5-11.1H20v-3.2h-4.6
	c-2.9,0-5.1,1.1-6.6,2.7c-1.5,1.6-2.2,3.9-2.2,6.1c0,2.2,0.7,4.4,2.2,6c1.5,1.6,3.8,2.7,6.9,2.7h7.6c0.5,0,0.9-0.4,0.9-0.9V17.1
	c0-0.8,0.5-1.4,1-1.6c0.6-0.2,1.3,0,1.7,0.6l0,0c2.2,3.5,10.7,17.2,10.7,17.3c0.2,0.3,0.5,0.4,0.7,0.3c0.2-0.1,0.4-0.3,0.4-0.8V17.1
	c0-0.8,0.5-1.4,1-1.6c0.6-0.2,1.3,0,1.7,0.6v0h0c2.2,3.5,10.7,17.2,10.7,17.3c0.2,0.3,0.5,0.4,0.7,0.3c0.2-0.1,0.4-0.3,0.4-0.8V12
	h-3.2v12.2c0,0-1.9-3.3-5.3-9c-3.2-5.6-9.4-3.3-9.4,1.5v7.5c0,0-1.9-3.3-5.2-9C28.9,12.7,26.9,11.8,25.1,11.9L25.1,11.9z M16,12
	c-18.1,0-17.9,25.8,0.2,25.8h7.1c3.1,0,5-1.8,5-5.1v-6.5c0,0,4,6.6,5.5,9.2c2.7,4.4,9.1,3.5,9.1-2v-7.2c0,0,4,6.6,5.5,9.2
	c2.7,4.4,9.1,3.5,9.1-2V12h-3.2v20.9c0,0.8-0.4,1.4-1,1.6c-0.6,0.2-1.2,0-1.6-0.6h0v0c0,0-8.6-13.7-10.7-17.2c0,0,0,0,0,0
	c0,0,0,0,0,0c-0.2-0.3-0.5-0.4-0.8-0.3c-0.2,0.1-0.5,0.3-0.5,0.8v15.8c0,0.8-0.4,1.4-1,1.6c-0.6,0.2-1.2-0.1-1.6-0.6v0h0
	c0,0-8.6-13.7-10.7-17.3c-0.2-0.3-0.5-0.4-0.8-0.3C25.2,16.3,25,16.5,25,17v0v15.7c0,1-0.8,1.7-1.7,1.7h-7.6c-3.3,0-5.8-1.2-7.5-3
	c-1.7-1.8-2.5-4.2-2.5-6.6c0-2.4,0.8-4.8,2.4-6.6c1.6-1.8,4.1-3,7.2-3H20V12L16,12L16,12z"/>
</svg>
