<?xml version="1.0" encoding="iso-8859-1"?>
<!-- Generator: Adobe Illustrator 21.1.0, SVG Export Plug-In . SVG Version: 6.00 Build 0)  -->
<svg version="1.1" xmlns="http://www.w3.org/2000/svg" xmlns:xlink="http://www.w3.org/1999/xlink" x="0px" y="0px"
	 viewBox="0 0 60 50" style="enable-background:new 0 0 60 50;" xml:space="preserve">
<g id="Layer_1">
</g>
<g id="Layer_1_1_">
	<g>
		<path style="fill:#D1D0D5;" d="M14.34,33.82l2.25-15.12l9.09,0.63l5.13,4.32l3.87-6.12l9.63,7.56v-7.56l8.19,7.92
			c0-0.18,0-0.27,0-0.45C52.5,12.58,42.42,2.5,30,2.5S7.5,12.58,7.5,25S17.58,47.5,30,47.5c0.99,0,1.89-0.09,2.79-0.18L14.34,33.82z
			"/>
		<path style="fill:#FFFFFF;" d="M28.38,25.63c0-4.86-2.97-8.19-8.55-8.19h-5.49v16.38h5.67C25.41,33.82,28.38,30.49,28.38,25.63
			L28.38,25.63L28.38,25.63z M24.42,25.72c0,3.51-1.8,5.04-4.59,5.04H18.3V20.68h1.44C22.53,20.68,24.42,22.21,24.42,25.72
			L24.42,25.72L24.42,25.72z M44.31,33.82V17.53h-3.69v9.18l-5.94-9.18h-3.87v16.38h3.69V24.1l6.39,9.81h3.42L44.31,33.82z"/>
	</g>
</g>
</svg>
