<svg id="Layer_1" data-name="Layer 1" xmlns="http://www.w3.org/2000/svg" width="60" height="50" viewBox="0 0 60 50">
  <title>reddit</title>
  <path id="path4245" d="M28.865,47.51a22.589,22.589,0,0,1-12.241-4.374A22.316,22.316,0,0,1,7.5,24.99,22.366,22.366,0,0,1,26.456,2.743,22.929,22.929,0,0,1,40.172,4.886,22.514,22.514,0,0,1,33.61,47.209,26.508,26.508,0,0,1,28.865,47.51Z" fill="#d1d0d5"/>
  <path id="path4245-1" d="M33.92,38.089a16.1,16.1,0,0,0,3.772-1.31c3.428-1.734,5.575-4.613,5.575-7.477,0-.866.019-.906.74-1.6A3.1,3.1,0,0,0,45,26.114a2.2,2.2,0,0,0,.009-1.7,3.347,3.347,0,0,0-4.843-2.1l-.77.39-.794-.489a16.843,16.843,0,0,0-5.994-2.031c-.48-.047-1.085-.117-1.344-.156l-.472-.071.2-1.014c.111-.558.344-1.659.516-2.446s.388-1.856.48-2.374c.132-.749.223-.942.441-.942.151,0,1.228.2,2.4.452s2.145.452,2.175.452a1.355,1.355,0,0,1,.146.5A1.91,1.91,0,0,0,38.3,16.053a2.381,2.381,0,1,0-.726-3.609c-.275.342-.413.4-.678.308-.183-.067-1.442-.348-2.8-.625-1.794-.367-2.531-.462-2.71-.348-.275.173-.239.045-1,3.594-.9,4.222-.954,4.461-1.032,4.538a8.978,8.978,0,0,1-1.446.216,16.524,16.524,0,0,0-6.5,2.088l-.784.482-.77-.384a3.369,3.369,0,0,0-4.863,2.1,2.2,2.2,0,0,0,.009,1.7,3.1,3.1,0,0,0,.991,1.583c.722.7.74.739.74,1.6,0,3.957,4.066,7.732,9.5,8.819a13.323,13.323,0,0,0,4.221.318A17.027,17.027,0,0,0,33.92,38.089Zm-6.341-2.873a7.46,7.46,0,0,1-3.072-1.364c-.33-.364-.189-.916.234-.916a2.154,2.154,0,0,1,.857.38c2.07,1.413,6.741,1.408,8.818-.01.669-.457,1.216-.444,1.284.03.032.223-.11.445-.452.705-1.661,1.267-4.992,1.777-7.668,1.174Zm-3.8-5.6a2.137,2.137,0,0,1-1.161-2.033,2.026,2.026,0,0,1,1.515-2.111,1.523,1.523,0,0,1,1.438,0,2.239,2.239,0,0,1,.638,3.888A2.147,2.147,0,0,1,23.775,29.614Zm10.522.07a2.259,2.259,0,0,1,.136-4.213,1.523,1.523,0,0,1,1.438,0,2.026,2.026,0,0,1,1.515,2.111,2.094,2.094,0,0,1-1.194,2.032A1.886,1.886,0,0,1,34.3,29.683Z" fill="#666475"/>
</svg>
