<?xml version="1.0" encoding="iso-8859-1"?>
<!-- Generator: Adobe Illustrator 21.1.0, SVG Export Plug-In . SVG Version: 6.00 Build 0)  -->
<svg version="1.1" id="Layer_1" xmlns="http://www.w3.org/2000/svg" xmlns:xlink="http://www.w3.org/1999/xlink" x="0px" y="0px"
	 viewBox="0 0 60 50" style="enable-background:new 0 0 60 50;" xml:space="preserve">
<g id="Layer_14">
	<g>
		<path d="M30,2.5C17.557,2.5,7.5,12.557,7.5,25S17.557,47.5,30,47.5S52.5,37.443,52.5,25S42.443,2.5,30,2.5z"/>
		<path style="fill:#D1D0D5;" d="M30,2.5C17.557,2.5,7.5,12.557,7.5,25S17.557,47.5,30,47.5S52.5,37.443,52.5,25S42.443,2.5,30,2.5z
			"/>
		<path style="fill:#666475;" d="M30,39.557c-8.022,0-14.557-6.535-14.557-14.557S21.978,10.443,30,10.443S44.557,16.978,44.557,25
			S38.022,39.557,30,39.557z"/>
	</g>
</g>
</svg>
