<?xml version="1.0" encoding="iso-8859-1"?>
<!-- Generator: Adobe Illustrator 21.1.0, SVG Export Plug-In . SVG Version: 6.00 Build 0)  -->
<svg version="1.1" id="Layer_1" xmlns="http://www.w3.org/2000/svg" xmlns:xlink="http://www.w3.org/1999/xlink" x="0px" y="0px"
	 viewBox="0 0 60 50" style="enable-background:new 0 0 60 50;" xml:space="preserve">
<path style="fill:#D1D0D5;" d="M15,38.625c3.225-0.65,3.3-0.775,3.3-3.625V15c0-2.825-0.15-3.05-3.3-3.625v-2.25h16.325
	C40.275,9.125,45,11.875,45,18.7c0,5.15-3.725,10.175-11.425,10.175c-1.925,0-3.25-0.225-3.8-0.425v-1.575
	c3.625-0.95,4.9-1.75,4.9-7.9c0-5.825-0.825-7.8-4-7.8c-1.85,0-2.2,0.5-2.2,2.575V35c0,2.875,0.075,3.025,3.725,3.625v2.25H15
	V38.625z"/>
</svg>
