<?xml version="1.0" encoding="iso-8859-1"?>
<!-- Generator: Adobe Illustrator 21.1.0, SVG Export Plug-In . SVG Version: 6.00 Build 0)  -->
<svg version="1.1" id="Layer_1" xmlns="http://www.w3.org/2000/svg" xmlns:xlink="http://www.w3.org/1999/xlink" x="0px" y="0px"
	 viewBox="0 0 60 50" style="enable-background:new 0 0 60 50;" xml:space="preserve">
<path style="fill:#D1D0D5;" d="M16.839,8.501h26.323c0.76,0,1.365,0.588,1.365,1.313c0,0.727-0.605,1.311-1.365,1.311H16.839
	c-0.754,0-1.365-0.584-1.365-1.311C15.474,9.089,16.084,8.501,16.839,8.501 M16.839,24.228h26.323c0.76,0,1.365,0.588,1.365,1.313
	c0,0.727-0.605,1.311-1.365,1.311H16.839c-0.754,0-1.365-0.584-1.365-1.311C15.474,24.816,16.084,24.228,16.839,24.228
	 M12.874,12.433h34.249c0.755,0,1.369,0.588,1.369,1.308c0,0.724-0.614,1.316-1.369,1.316H12.874c-0.756,0-1.366-0.592-1.366-1.316
	C11.508,13.021,12.118,12.433,12.874,12.433 M12.874,16.365h34.249c0.755,0,1.369,0.588,1.369,1.308
	c0,0.724-0.614,1.316-1.369,1.316H12.874c-0.756,0-1.366-0.592-1.366-1.316C11.508,16.953,12.118,16.365,12.874,16.365
	 M12.874,20.297h34.249c0.755,0,1.369,0.588,1.369,1.308c0,0.724-0.614,1.316-1.369,1.316H12.874c-0.756,0-1.366-0.591-1.366-1.316
	C11.508,20.885,12.118,20.297,12.874,20.297 M23.369,33.304v-2.373h13.236v2.373h-5.281v8.195h-2.666v-8.195H23.369z M41.474,38.849
	v2.649h-2.634V30.931h9.56c2.267,0,4.101,1.772,4.101,3.96c0,2.187-1.833,3.958-4.101,3.958H41.474L41.474,38.849z M41.474,33.304
	v3.171h6.742c0.907,0,1.633-0.715,1.633-1.584c0-0.874-0.726-1.587-1.633-1.587H41.474z M10.134,38.868v2.631H7.5V30.931h9.821
	c2.264,0,4.098,1.772,4.098,3.959c0,1.411-0.765,2.653-1.915,3.341l1.915,3.268h-2.887l-1.563-2.631H10.134L10.134,38.868z
	 M10.134,33.304v3.172h7.001c0.91,0,1.636-0.717,1.636-1.586c0-0.873-0.726-1.586-1.636-1.586
	C17.135,33.304,10.134,33.304,10.134,33.304z"/>
</svg>
