<?xml version="1.0" encoding="iso-8859-1"?>
<!-- Generator: Adobe Illustrator 21.1.0, SVG Export Plug-In . SVG Version: 6.00 Build 0)  -->
<svg version="1.1" id="Layer_1" xmlns="http://www.w3.org/2000/svg" xmlns:xlink="http://www.w3.org/1999/xlink" x="0px" y="0px"
	 viewBox="0 0 60 50" style="enable-background:new 0 0 60 50;" xml:space="preserve">
<g id="Layer_1_1_">
</g>
<path id="XMLID_103_" style="fill:#EAEAEA;" d="M37.918,5.676c-0.232-0.108-0.418,0-0.418,0.263v31.409l13.762,6.873
	c0.681,0.341,1.238,0,1.238-0.774V13.215c0-0.155-0.077-0.294-0.217-0.356L37.918,5.676z"/>
<path id="XMLID_102_" style="fill:#D1D0D5;" d="M22.5,29.855L37.252,5.877c0.139-0.217,0.433-0.31,0.666-0.186l14.257,7.121
	c0.17,0.093,0.248,0.31,0.139,0.48L37.5,37.348L22.5,29.855z"/>
<path id="XMLID_101_" style="fill:#B5B5B5;" d="M9.156,6.311C8.243,5.847,7.933,6.187,8.475,7.07L22.5,29.855l15,7.508
	L22.593,13.137c-0.062-0.108-0.155-0.186-0.263-0.248L9.156,6.311z"/>
<path id="XMLID_100_" style="fill:#9A9A9B;" d="M22.5,43.462c0,0.759-0.557,1.115-1.238,0.774L8.336,37.765
	C7.872,37.533,7.5,36.929,7.5,36.418V6.403c0-0.511,0.372-0.743,0.836-0.511l13.978,6.997c0.108,0.062,0.186,0.17,0.186,0.294
	L22.5,43.462L22.5,43.462z"/>
</svg>
