<svg xmlns="http://www.w3.org/2000/svg" width="45" height="44" viewBox="0 0 45 44">
  <g fill="none" fill-rule="evenodd">
    <ellipse cx="22.852" cy="22" stroke="#784BC9" rx="21.483" ry="21.5"/>
    <path fill="#784BC9" d="M30.7901978,17.1383947 C30.1968191,17.3941614 29.5522871,17.5783134 28.8872937,17.6499281 C29.5727484,17.2407014 30.0945124,16.5961694 30.3400484,15.8288693 C29.7057471,16.207404 28.9896004,16.483632 28.2427617,16.6268614 C27.6391524,15.9823293 26.7797763,15.5833333 25.8283243,15.5833333 C23.9970349,15.5833333 22.5238189,17.06678 22.5238189,18.8878388 C22.5238189,19.1436054 22.5545109,19.3993721 22.6056642,19.6449081 C19.8638455,19.5016788 17.4187161,18.1921534 15.79204,16.1869427 C15.5055814,16.6780147 15.3418907,17.2407014 15.3418907,17.8545414 C15.3418907,19.0003761 15.9250387,20.0132121 16.8151067,20.6065908 C16.2728814,20.5861295 15.761348,20.4326695 15.3214294,20.1871335 L15.3214294,20.2280561 C15.3214294,21.8342708 16.4570334,23.1642575 17.9711721,23.4711776 C17.6949441,23.5427922 17.3982547,23.5837149 17.1015654,23.5837149 C16.8867214,23.5837149 16.6821081,23.5632536 16.4774947,23.5325616 C16.8969521,24.8420869 18.1144014,25.793539 19.5671561,25.824231 C18.4315521,26.714299 17.0094894,27.236063 15.4646587,27.236063 C15.1884307,27.236063 14.932664,27.2258323 14.6666667,27.1951403 C16.129652,28.1363617 17.8688654,28.678587 19.7410775,28.678587 C25.8180937,28.678587 29.1430604,23.6450989 29.1430604,19.2766041 C29.1430604,19.1333748 29.1430604,18.9901454 29.1328297,18.8469161 C29.7773618,18.3763054 30.3400484,17.7931574 30.7901978,17.1383947 Z"/>
  </g>
</svg>
