<svg xmlns="http://www.w3.org/2000/svg" width="44" height="44" viewBox="0 0 44 44">
  <g fill="none" fill-rule="evenodd">
    <ellipse cx="21.983" cy="22" stroke="#784BC9" rx="21.483" ry="21.5"/>
    <path fill="#784BC9" d="M19.7466873,24.4369514 L24.2031658,22.1350514 L19.7466873,19.8055285 L19.7466873,24.4369514 Z M21.4500934,16.5 C24.9213586,16.5 27.2232587,16.6657368 27.2232587,16.6657368 C27.5455247,16.7025672 28.2545099,16.7025672 28.8806268,17.3655144 C28.8806268,17.3655144 29.3870448,17.8627248 29.5343664,19.0044673 C29.7093108,20.3395693 29.7001032,21.6746713 29.7001032,21.6746713 L29.7001032,22.926905 C29.7001032,22.926905 29.7093108,24.262007 29.5343664,25.5971091 C29.3870448,26.7296439 28.8806268,27.2360619 28.8806268,27.2360619 C28.2545099,27.8898015 27.5455247,27.8898015 27.2232587,27.9266319 C27.2232587,27.9266319 24.9213586,28.1015763 21.4500934,28.1015763 C17.1593516,28.0647459 15.8426648,27.9358395 15.8426648,27.9358395 C15.4743608,27.8713863 14.6456768,27.8898015 14.0195599,27.2360619 C14.0195599,27.2360619 13.5131419,26.7296439 13.3658203,25.5971091 C13.1908759,24.262007 13.2000835,22.926905 13.2000835,22.926905 L13.2000835,21.6746713 C13.2000835,21.6746713 13.1908759,20.3395693 13.3658203,19.0044673 C13.5131419,17.8627248 14.0195599,17.3655144 14.0195599,17.3655144 C14.6456768,16.7025672 15.354662,16.7025672 15.676928,16.6657368 C15.676928,16.6657368 17.9788281,16.5 21.4500934,16.5 Z"/>
  </g>
</svg>
